<svg width="67" height="12" viewBox="0 0 67 12" fill="none" xmlns="http://www.w3.org/2000/svg">
<path fill-rule="evenodd" clip-rule="evenodd" d="M16.5748 0.333252H15.5864C15.0406 0.333252 14.5981 0.780967 14.5981 1.33325V9.99992C14.5981 10.5522 15.0406 10.9999 15.5864 10.9999H16.5748C17.1207 10.9999 17.5632 10.5522 17.5632 9.99992V1.33325C17.5632 0.780967 17.1207 0.333252 16.5748 0.333252ZM10.9741 2.66658H11.9624C12.5083 2.66658 12.9508 3.1143 12.9508 3.66658V9.99992C12.9508 10.5522 12.5083 10.9999 11.9624 10.9999H10.9741C10.4282 10.9999 9.98571 10.5522 9.98571 9.99992V3.66658C9.98571 3.1143 10.4282 2.66658 10.9741 2.66658ZM7.35008 4.99992H6.36172C5.81586 4.99992 5.37335 5.44763 5.37335 5.99992V9.99992C5.37335 10.5522 5.81586 10.9999 6.36172 10.9999H7.35008C7.89594 10.9999 8.33844 10.5522 8.33844 9.99992V5.99992C8.33844 5.44763 7.89594 4.99992 7.35008 4.99992ZM2.73771 6.99992H1.74935C1.20349 6.99992 0.760986 7.44763 0.760986 7.99992V9.99992C0.760986 10.5522 1.20349 10.9999 1.74935 10.9999H2.73771C3.28357 10.9999 3.72608 10.5522 3.72608 9.99992V7.99992C3.72608 7.44763 3.28357 6.99992 2.73771 6.99992Z" fill="black"/>
<path opacity="0.35" d="M42.7725 5.99992C42.7725 3.14645 45.0857 0.833252 47.9391 0.833252H58.3498C61.2032 0.833252 63.5164 3.14645 63.5164 5.99992C63.5164 8.85339 61.2033 11.1666 58.3498 11.1666H47.9391C45.0857 11.1666 42.7725 8.85339 42.7725 5.99992Z" stroke="black"/>
<path opacity="0.4" d="M65.0049 4V5.46637C65.0049 6.66707 66.3175 7.2007 66.3175 6C66.3175 5.12687 65.8002 4.33878 65.0049 4Z" fill="black"/>
<path d="M44.2493 5.99992C44.2493 3.97488 45.8909 2.33325 47.9159 2.33325H58.3731C60.3982 2.33325 62.0398 3.97488 62.0398 5.99992C62.0398 8.02496 60.3982 9.66659 58.3731 9.66659H47.9159C45.8909 9.66659 44.2493 8.02496 44.2493 5.99992Z" fill="black"/>
<path fill-rule="evenodd" clip-rule="evenodd" d="M29.9182 2.31175C32.1083 2.31185 34.2147 3.16329 35.8019 4.69008C35.9215 4.80796 36.1125 4.80647 36.2302 4.68675L37.3728 3.52008C37.4324 3.45936 37.4656 3.37711 37.4651 3.29153C37.4646 3.20595 37.4305 3.1241 37.3702 3.06408C33.2041 -0.975463 26.6317 -0.975463 22.4656 3.06408C22.4053 3.12405 22.371 3.20588 22.3705 3.29146C22.3699 3.37704 22.4031 3.45932 22.4627 3.52008L23.6055 4.68675C23.7232 4.80665 23.9144 4.80814 24.0338 4.69008C25.6213 3.16319 27.7279 2.31175 29.9182 2.31175ZM29.9182 6.10742C31.1215 6.10734 32.2819 6.55988 33.1739 7.37708C33.2945 7.49306 33.4846 7.49055 33.6022 7.37142L34.7434 6.20475C34.8035 6.14356 34.8369 6.06054 34.836 5.97428C34.8351 5.88801 34.8001 5.8057 34.7388 5.74575C32.0226 3.18937 27.8162 3.18937 25.0999 5.74575C25.0386 5.8057 25.0036 5.88805 25.0028 5.97434C25.002 6.06064 25.0354 6.14364 25.0957 6.20475L26.2366 7.37142C26.3542 7.49055 26.5442 7.49306 26.6649 7.37708C27.5562 6.56042 28.7157 6.10792 29.9182 6.10742ZM32.2043 8.66124C32.206 8.74774 32.1724 8.83114 32.1114 8.89175L30.1373 10.9074C30.0794 10.9667 30.0005 11 29.9182 11C29.8359 11 29.757 10.9667 29.6991 10.9074L27.7247 8.89175C27.6637 8.8311 27.6302 8.74767 27.632 8.66116C27.6338 8.57466 27.6708 8.49274 27.7343 8.43475C28.995 7.35587 30.8414 7.35587 32.1022 8.43475C32.1656 8.49279 32.2026 8.57473 32.2043 8.66124Z" fill="black"/>
</svg>
