<svg width="212" height="189" viewBox="0 0 212 189" fill="none" xmlns="http://www.w3.org/2000/svg">
<g clip-path="url(#clip0_791_1360)">
<path fill-rule="evenodd" clip-rule="evenodd" d="M29.61 186.265C29.61 186.265 39.0447 176.324 43.1495 172.929C47.2534 169.534 60.6422 164.226 60.6422 164.226C60.6422 164.226 38.8274 167.44 23.4533 156.395C4.36264 142.68 1.99609 122.084 1.99609 122.084C1.99609 122.084 8.47669 124.106 15.8304 122.593C23.1833 121.081 36.1601 121.172 42.6913 122.14C49.2233 123.107 55.0553 125.122 55.0553 125.122C55.0553 125.122 44.031 118.471 40.6743 113.717C37.3167 108.961 34.9884 102.383 34.9884 102.383C34.9884 102.383 37.5062 105.071 43.3681 104.427C49.23 103.781 58.4693 102.235 61.9213 103.606C61.9213 103.606 46.4376 94.9234 40.1655 81.5694C33.8925 68.2162 26.404 43.6221 20.8816 40.5574C20.8816 40.5574 34.4346 39.5467 47.3377 43.7849C60.2408 48.0232 69.1002 56.4357 69.1002 56.4357C69.1002 56.4357 92.9758 33.9671 95.4835 28.6823C97.9911 23.3975 104.338 14.2324 105.971 9.92439C107.605 5.6164 108.318 1.76782 108.318 1.76782C108.318 1.76782 117.098 7.78453 124.144 18.6402C131.193 29.4959 134.595 44.876 134.545 52.4005C134.495 59.9243 139.315 63.3467 139.315 63.3467C139.315 63.3467 142.022 54.1579 151.933 49.4365C166.317 42.5835 177.614 33.2435 178.799 30.0428C178.799 30.0428 179.289 57.8218 173.981 71.5843C168.046 86.9745 155.778 99.7552 155.778 99.7552C155.778 99.7552 161.67 96.536 166.001 97.5807C170.333 98.6261 178.445 100.115 182.705 97.6252C182.705 97.6252 178.869 104.208 175.203 107.6C171.538 110.992 164.135 115.018 164.135 115.018C164.135 115.018 174.785 112.424 185.344 116.981C195.901 121.538 208.395 128.107 210.772 127.544C210.772 127.544 194.895 145.085 185.061 148.766C175.227 152.446 161.244 151.388 161.244 151.388C161.244 151.388 170.943 154.342 175.402 161.639C179.86 168.936 182.117 176.837 186.063 181.349C190.009 185.862 192.541 186.683 192.541 186.683L29.61 186.264V186.265Z" fill="white"/>
<path fill-rule="evenodd" clip-rule="evenodd" d="M79.3941 98.5814C79.3941 98.5814 78.0101 96.319 80.6231 95.1364C83.2361 93.9549 87.7022 91.0082 87.3884 89.0017C87.3884 89.0017 107.61 83.415 111.672 84.0625C115.734 84.7099 118.686 91.3387 118.686 91.3387C118.686 91.3387 121.21 89.552 123.409 90.5427C125.608 91.5343 136.615 101.737 136.615 101.737C136.615 101.737 142.564 103.433 144.58 107.605C146.596 111.776 145.005 115.149 145.005 115.149C145.005 115.149 147.773 117.174 148.08 119.842C148.387 122.509 146.292 123.754 148.447 125.353C150.6 126.953 155.554 130.703 155.5 136.269C155.448 141.835 154.164 149.771 149.397 152.502C144.63 155.234 143.303 155.023 142.341 158.541C141.38 162.06 137.561 163.838 132.606 162.533C127.65 161.228 78.2384 116.661 77.6576 117.904C77.0759 119.146 79.3945 98.581 79.3945 98.581L79.3941 98.5814Z" fill="white"/>
<path fill-rule="evenodd" clip-rule="evenodd" d="M74.5813 50.323C74.5813 50.323 72.4784 56.6348 72.3483 61.6136C72.2181 66.5924 74.9343 71.4345 76.0584 74.4215C77.1825 77.4078 76.9306 81.2353 79.937 83.6853C82.9433 86.1357 86.2462 88.2922 87.5683 89.0297C88.8912 89.7665 91.3171 90.536 91.3171 90.536C91.3171 90.536 93.065 92.899 94.0645 95.1553C95.0648 97.4124 95.1199 99.6589 95.1199 99.6589C95.1199 99.6589 91.1803 98.9881 88.4569 98.8396C85.7336 98.6904 76.9976 98.0659 72.5749 101.454C68.1529 104.842 67.5999 109.605 66.4051 114.272C65.211 118.939 57.9512 133.499 56.4982 136.024C55.0451 138.55 52.719 140.789 52.3926 141.146C52.067 141.503 47.2361 145.627 46.0353 149.285C44.8342 152.944 43.2139 156.564 44.5785 158.986C45.9431 161.409 51.837 162.726 58.9161 160.865C65.9953 159.004 77.6092 155.51 93.0886 144.473C108.569 133.436 115.068 128.331 115.068 128.331C115.068 128.331 111.376 142.716 111.544 149.828C111.712 156.939 117.859 168.178 123.621 168.235C129.383 168.294 134.91 154.75 135.742 147.309C136.574 139.867 135.383 112.386 135.383 112.386C135.383 112.386 140.325 107.059 139.905 106.046C139.483 105.034 136.228 107.542 136.228 107.542L137.44 103.644C137.44 103.644 140.946 100.8 141.065 99.5873C141.185 98.3745 137.991 98.0685 136.072 99.8134C136.072 99.8134 140.049 88.5319 142.416 83.44C144.782 78.3489 145.652 67.4268 144.713 65.0386C143.774 62.6504 142.136 63.3076 142.136 63.3076C142.136 63.3076 142.302 54.4976 141.038 51.6383C139.772 48.779 137.514 49.8677 137.514 49.8677C137.514 49.8677 135.621 47.7577 134.507 51.6198C133.392 55.4816 133.521 62.0206 133.521 62.0206C133.521 62.0206 131.241 50.8039 129.84 50.5781C128.438 50.3528 128.012 54.7049 128.369 58.9156C128.725 63.1264 128.898 67.9081 128.898 67.9081C128.898 67.9081 123.878 56.1042 122.292 54.8582C120.706 53.6127 119.237 53.4235 120.013 57.0072C120.791 60.5908 123.725 67.7675 124.067 69.2663C124.408 70.7651 125.129 74.5214 123.947 79.7851C122.765 85.0496 122.463 89.4088 123.706 91.6361C124.949 93.8627 125.732 95.2827 125.732 95.2827C125.732 95.2827 121.095 95.9396 117.977 97.2873C114.857 98.6346 109.779 99.5477 109.779 99.5477C109.779 99.5477 107.908 94.5878 107.322 91.9075C106.737 89.2272 108.01 84.8042 109.003 83.9981C109.996 83.192 114.445 77.3287 114.408 73.2781C114.371 69.2275 113.41 64.7017 113.41 64.7017C113.41 64.7017 103.785 53.376 98.7218 49.9725L93.8379 46.9214L89.4808 46.9828C89.4808 46.9828 86.6088 49.0722 84.9641 49.7208C83.3194 50.3694 78.4431 49.6597 78.4431 49.6597L78.2283 51.9654L76.5086 49.1909L74.5817 50.3234L74.5813 50.323Z" fill="#FFC3AF"/>
<path fill-rule="evenodd" clip-rule="evenodd" d="M76.7377 123.898C76.7377 123.898 74.1791 127.313 72.9467 129.228C71.7148 131.142 70.3245 135.246 70.3245 135.246C70.3245 135.246 82.0593 132.373 85.3415 130.741C88.6237 129.11 93.4698 126.514 93.4698 126.514L76.7377 123.898ZM72.0682 156.592C72.0682 156.592 71.5889 162.684 71.6285 165.401C71.668 168.118 73.2243 177.514 73.2243 177.514L67.4095 186.974L136.616 186.743L133.895 180.678C133.895 180.678 134.677 178.47 134.63 177.191C134.584 175.912 132.132 174.348 132.132 174.348C132.132 174.348 133.048 159.614 132.997 158.857C132.945 158.1 130.045 166.581 125.506 168.056C120.966 169.53 114.095 163.329 112.395 155.242C110.696 147.156 112.761 138.64 113.274 136.309C113.786 133.977 115.201 128.581 115.201 128.581C115.201 128.581 101.565 138.75 98.4337 140.678C95.3036 142.606 72.0682 156.592 72.0682 156.592ZM86.3064 88.7997C86.3064 88.7997 76.4534 88.1753 74.4571 86.1447C72.4603 84.1134 72.2295 78.9533 72.2295 78.9533C72.2295 78.9533 67.4336 69.4999 66.7188 65.8997C66.0045 62.2994 68.6962 52.0215 68.6962 52.0215C68.6962 52.0215 66.3221 50.987 66.4754 49.308C66.6295 47.6291 69.6662 46.5637 69.598 45.802C69.5306 45.0407 68.2978 43.4364 68.6899 42.4965C69.0825 41.5566 72.1629 39.5004 72.8406 37.9021C73.5183 36.3038 75.1002 30.2761 83.4664 27.7613C91.8327 25.2461 98.8423 26.1234 106.332 30.4525C113.822 34.7816 116.17 37.6315 118.282 41.8498C120.395 46.0681 122.037 52.1153 122.18 55.056C122.18 55.056 120.116 53.2723 120.087 54.614C120.058 55.9556 122.759 63.571 123.701 66.9526C124.642 70.335 124.149 71.8689 124.149 71.8689L120.609 76.5319C120.609 76.5319 118.331 82.0587 115.681 83.6393C113.031 85.2199 107.949 86.9094 107.949 86.9094C107.949 86.9094 111.598 81.7753 112.587 79.5653C113.575 77.3554 114.515 66.4989 113.942 65.2741C113.37 64.05 102.771 51.9397 98.9294 49.7825C95.0883 47.6257 93.1189 46.6763 93.1189 46.6763L89.1763 47.1177C89.1763 47.1177 87.0633 49.2311 84.2481 49.6378C81.4326 50.0452 78.2662 49.7392 78.2662 49.7392L78.3567 52.5517L76.4223 49.2368C76.4223 49.2368 74.773 51.6216 73.8177 53.6556C72.8625 55.6899 72.6515 63.6939 73.6434 67.4188C74.6352 71.1446 76.4021 74.04 76.7428 76.4855C77.0831 78.9307 77.7974 81.6046 79.6009 83.2628C81.4052 84.921 86.3081 88.7994 86.3081 88.7994L86.3064 88.7997ZM84.2549 125.073C84.2549 125.073 86.3746 110.166 87.0881 106.657C87.8016 103.148 88.7374 98.4423 89.8375 98.3805C90.9377 98.3179 88.828 108.113 88.5622 109.454C88.2965 110.796 86.0415 125.352 86.0415 125.352L84.2549 125.073ZM116.458 107.826C116.458 107.826 116.812 102.643 116.932 100.939C117.051 99.236 117.475 96.9341 118.215 96.9092C118.955 96.8843 118.949 101.067 118.682 102.17C118.415 103.273 117.729 107.169 117.729 107.169L116.458 107.826Z" fill="#988B34"/>
<path fill-rule="evenodd" clip-rule="evenodd" d="M64.2681 181.54C64.2681 181.54 64.5583 181.367 65.0039 181.051C65.3627 180.797 65.8151 180.447 66.3268 180.06C67.2774 179.341 68.4179 178.484 69.4165 177.768C69.684 177.577 69.9439 177.398 70.1772 177.225C70.6308 176.887 70.9938 176.588 71.279 176.424C71.4715 176.333 71.5447 176.119 71.4432 175.946C71.3417 175.774 71.1029 175.708 70.9096 175.799C70.5861 175.92 70.1405 176.123 69.6427 176.419C69.2898 176.629 68.9179 176.891 68.5283 177.17C67.1544 178.155 65.5843 179.384 64.6497 180.207C64.0899 180.701 63.7682 181.051 63.7682 181.051C63.6178 181.174 63.6069 181.384 63.745 181.519C63.8831 181.654 64.1177 181.664 64.2681 181.54ZM56.3134 184.184L56.3125 184.183C56.3054 184.176 56.3155 184.169 56.3327 184.161C56.369 184.113 56.3917 184.057 56.3963 183.994C56.3942 184.011 56.3942 184.083 56.3824 184.137C56.366 184.146 56.3466 184.154 56.3327 184.161C56.3264 184.168 56.3205 184.176 56.3134 184.184C56.3521 184.22 56.3723 184.186 56.3824 184.137L56.3909 184.132C56.6111 183.991 57.0934 183.727 57.7369 183.361C58.0958 183.156 58.5039 182.921 58.9457 182.66C60.3406 181.84 62.0814 180.786 63.726 179.764C65.8003 178.474 67.7099 177.215 68.5755 176.474C69.0585 176.046 69.4898 175.68 69.8554 175.358C70.4042 174.874 70.8178 174.501 71.1257 174.236C71.5637 173.862 71.7684 173.699 71.7684 173.699C71.939 173.578 71.9676 173.356 71.832 173.203C71.6964 173.051 71.4474 173.025 71.2769 173.146C71.2769 173.146 70.718 173.499 69.5037 174.425C69.2481 174.619 68.9634 174.838 68.653 175.091C68.3965 175.299 68.1248 175.531 67.8304 175.782C66.6006 176.847 63.1743 178.982 60.2985 180.763C59.4511 181.288 58.6463 181.777 57.9669 182.21C57.5992 182.444 57.2715 182.665 56.9843 182.857C56.4532 183.213 56.0725 183.482 55.8981 183.619C55.6989 183.777 55.6584 183.921 55.6576 183.956C55.6454 184.138 55.8012 184.295 56.0042 184.306C56.1285 184.313 56.2413 184.265 56.3138 184.185L56.3134 184.184ZM140.934 162.466C140.934 162.466 141.71 163.453 142.97 164.935C145.079 167.415 148.517 171.299 151.444 174.573C152.263 175.49 153.04 176.361 153.756 177.126C154.734 178.171 155.589 179.023 156.171 179.61C156.311 179.76 156.56 179.78 156.727 179.655C156.895 179.531 156.918 179.308 156.779 179.158C156.243 178.54 155.49 177.62 154.563 176.546C153.881 175.757 153.102 174.89 152.285 173.972C149.365 170.695 145.934 166.81 143.725 164.401C142.406 162.962 141.515 162.057 141.515 162.057C141.389 161.913 141.156 161.888 140.995 162.002C140.835 162.115 140.807 162.323 140.934 162.466ZM143.221 160.774C143.221 160.774 143.714 161.33 144.566 162.207C144.838 162.488 145.152 162.798 145.495 163.135C146.965 164.576 148.986 166.505 151.082 168.411C152.188 169.415 153.302 170.427 154.401 171.325C155.217 171.991 156.03 172.586 156.772 173.124C156.935 173.253 157.185 173.239 157.33 173.092C157.473 172.946 157.458 172.723 157.294 172.594C156.612 172.009 155.897 171.338 155.123 170.647C154.076 169.713 152.944 168.734 151.842 167.739C149.746 165.846 147.711 163.942 146.21 162.537C145.859 162.208 145.538 161.907 145.246 161.643C144.337 160.818 143.768 160.329 143.768 160.329C143.631 160.194 143.397 160.183 143.246 160.306C143.094 160.429 143.083 160.638 143.221 160.774L143.221 160.774ZM113.657 33.1501C113.657 33.1501 113.558 32.7547 113.356 32.1144C113.162 31.4997 112.86 30.6661 112.599 29.7138C112.421 29.0599 112.266 28.3506 112.116 27.6308C112.087 27.4917 112.055 27.3538 112.021 27.2151C111.941 26.8891 111.849 26.5707 111.781 26.2447C111.764 26.0502 111.573 25.9055 111.355 25.9213C111.138 25.9372 110.976 26.1079 110.993 26.3023C110.986 26.6988 110.977 27.0949 111.02 27.4917C111.084 28.0891 111.234 28.674 111.379 29.2333C111.678 30.3929 112.049 31.4364 112.356 32.1883C112.431 32.3711 112.5 32.5365 112.572 32.6801C112.799 33.1429 112.969 33.3973 112.969 33.3973C113.045 33.5669 113.262 33.649 113.451 33.5808C113.64 33.5126 113.733 33.3196 113.657 33.1501ZM113.305 19.3178C113.305 19.3178 113.203 20.2905 113.184 21.7701C113.17 22.8035 113.212 24.0833 113.298 25.4469C113.427 27.4763 113.689 29.6896 114.168 31.5623C114.506 32.8501 114.76 33.9083 114.99 34.7593C115.632 37.1226 115.873 37.9325 115.873 37.9325C115.91 38.1247 116.115 38.2532 116.33 38.2197C116.545 38.1862 116.688 38.003 116.651 37.8108C116.651 37.8108 116.568 36.9628 116.024 34.5535C115.83 33.6924 115.547 32.6368 115.213 31.3441C114.828 29.8875 114.583 28.2161 114.421 26.5948C114.264 25.0191 114.196 23.4898 114.152 22.2446C114.142 21.9348 114.131 21.6431 114.12 21.3721C114.068 20.1319 114.044 19.3382 114.044 19.3382C114.051 19.1554 113.89 19.0028 113.686 18.9967C113.482 18.9911 113.311 19.1351 113.305 19.3178ZM151.832 75.1291C151.832 75.1291 151.198 75.9541 150.225 77.2912C149.266 78.6102 147.991 80.4328 146.546 82.374C145.503 83.7733 144.37 85.2326 143.262 86.6443C143.038 86.9289 142.819 87.2127 142.602 87.4949C142.078 88.1805 141.573 88.8528 141.066 89.4825C140.932 89.6352 140.961 89.8579 141.133 89.9785C141.304 90.0991 141.553 90.0723 141.687 89.919C142.336 89.241 143.015 88.5264 143.667 87.7614C144.595 86.6692 145.485 85.4945 146.352 84.3428C148.063 82.0699 149.626 79.8449 150.746 78.1923C151.012 77.8004 151.254 77.4401 151.46 77.1167C152.111 76.098 152.469 75.4675 152.469 75.4675C152.573 75.31 152.515 75.1069 152.34 75.0138C152.164 74.9199 151.937 74.9723 151.832 75.1291ZM167.381 61.7246C167.381 61.7246 166.246 63.2197 164.405 65.6203C163.809 66.3967 163.144 67.271 162.418 68.2181C159.24 72.3595 154.88 77.9029 150.396 83.0795C147.883 85.9818 145.319 88.7571 142.936 91.1325C140.955 93.1069 139.108 94.8096 137.443 96.0148C137.272 96.1347 137.241 96.357 137.376 96.5108C137.51 96.6641 137.759 96.6913 137.93 96.5711C139.671 95.3937 141.652 93.7445 143.709 91.7637C146.155 89.4083 148.713 86.5901 151.241 83.6641C155.73 78.4659 160.082 72.8905 163.227 68.7095C163.945 67.7549 164.601 66.873 165.176 66.0812C166.955 63.6335 168.004 62.0815 168.004 62.0815C168.113 61.9274 168.064 61.7227 167.892 61.6244C167.72 61.526 167.491 61.5701 167.381 61.7243L167.381 61.7246ZM145.879 114.876C145.879 114.876 146.503 114.672 147.503 114.296C147.824 114.176 148.181 114.033 148.568 113.876C150.24 113.201 152.49 112.262 154.719 111.293C155.916 110.774 157.115 110.26 158.193 109.734C159.022 109.331 159.769 108.915 160.432 108.552C160.624 108.458 160.694 108.243 160.59 108.073C160.486 107.901 160.245 107.838 160.054 107.932C159.424 108.202 158.708 108.484 157.95 108.803C157.499 108.993 157.035 109.199 156.561 109.409C153.793 110.635 150.662 112.001 148.445 112.958C148.02 113.141 147.629 113.307 147.285 113.464C146.218 113.95 145.57 114.274 145.57 114.274C145.384 114.35 145.303 114.547 145.388 114.713C145.474 114.879 145.693 114.952 145.879 114.876V114.876ZM146.198 112.911C146.198 112.911 146.548 112.747 147.112 112.451C147.291 112.357 147.49 112.245 147.707 112.124C148.631 111.607 149.888 110.914 151.2 110.268C151.882 109.932 152.587 109.624 153.246 109.323C153.726 109.104 154.169 108.877 154.605 108.707C154.811 108.643 154.92 108.442 154.85 108.258C154.779 108.073 154.555 107.975 154.348 108.038C153.86 108.149 153.339 108.28 152.811 108.471C152.1 108.73 151.385 109.08 150.682 109.432C149.35 110.098 148.084 110.828 147.17 111.393C146.957 111.524 146.762 111.647 146.594 111.762C146.065 112.125 145.768 112.371 145.768 112.371C145.602 112.477 145.564 112.684 145.682 112.833C145.8 112.982 146.031 113.016 146.198 112.911V112.911ZM157.111 135.321C157.111 135.321 157.808 135.322 158.933 135.283C160.028 135.246 161.525 135.158 163.177 135.129C164.342 135.108 165.581 135.12 166.809 135.138C167.052 135.142 167.293 135.142 167.534 135.142C168.108 135.139 168.673 135.129 169.227 135.14C169.444 135.158 169.636 135.015 169.656 134.82C169.676 134.626 169.517 134.454 169.299 134.436C168.661 134.346 168.006 134.253 167.336 134.207C166.353 134.14 165.351 134.149 164.379 134.159C162.417 134.18 160.576 134.284 159.227 134.391C158.904 134.417 158.608 134.442 158.348 134.473C157.52 134.57 157.033 134.663 157.033 134.663C156.83 134.682 156.682 134.845 156.703 135.027C156.725 135.209 156.907 135.341 157.111 135.321ZM155.174 134.108C155.174 134.108 156.663 133.725 159.064 133.179C161.42 132.643 164.649 131.938 168.254 131.414C170.793 131.044 173.518 130.769 176.244 130.644C176.778 130.62 177.313 130.598 177.846 130.581C179.106 130.541 180.357 130.526 181.589 130.576C181.805 130.591 181.996 130.445 182.013 130.251C182.029 130.057 181.866 129.887 181.649 129.872C180.398 129.751 179.121 129.677 177.833 129.665C177.288 129.66 176.742 129.667 176.197 129.685C173.425 129.778 170.659 130.094 168.082 130.482C164.441 131.031 161.17 131.731 158.811 132.342C156.399 132.966 154.936 133.48 154.936 133.48C154.743 133.539 154.639 133.727 154.704 133.901C154.77 134.074 154.98 134.167 155.174 134.108ZM58.9823 78.3419C58.9823 78.3419 59.6478 79.0926 60.7812 80.259C61.1472 80.6359 61.5658 81.0512 62.0241 81.5016C64.0259 83.4673 66.7859 86.0722 69.6027 88.4801C71.1792 89.8274 72.7624 91.1257 74.2689 92.1836C75.519 93.0613 76.7168 93.7675 77.7566 94.274C77.9445 94.3724 78.1871 94.3155 78.297 94.1478C78.4069 93.9793 78.3433 93.7626 78.1551 93.6643C77.1851 93.1197 76.1056 92.3411 74.928 91.4573C73.4805 90.3701 71.8977 89.1143 70.3393 87.7893C67.5326 85.401 64.7689 82.8293 62.7413 80.9065C62.2759 80.4659 61.8514 80.0585 61.4673 79.7001C60.2796 78.5888 59.5383 77.9051 59.5383 77.9051C59.4044 77.7676 59.1702 77.7548 59.0165 77.8746C58.8627 77.9952 58.8476 78.2044 58.9823 78.3419ZM55.7793 70.1307C55.7793 70.1307 56.609 71.1803 58.041 72.834C58.5009 73.3654 59.0274 73.9552 59.6049 74.5947C62.0986 77.3526 65.559 81.0207 69.2295 84.5003C71.2027 86.37 73.2244 88.1997 75.2216 89.772C76.742 90.9689 78.2528 92.0087 79.6608 92.863C79.8385 92.9761 80.0857 92.9396 80.2121 92.7805C80.3385 92.6215 80.2968 92.401 80.119 92.2879C78.7814 91.3936 77.3818 90.2841 75.922 89.077C73.9876 87.4776 71.963 85.6927 70.0058 83.8442C66.3462 80.3876 62.8816 76.7557 60.3617 74.04C59.7763 73.4098 59.2426 72.8287 58.7646 72.3143C57.2774 70.7145 56.3673 69.7286 56.3673 69.7286C56.243 69.5835 56.0105 69.556 55.8484 69.6668C55.6854 69.7779 55.6555 69.986 55.7793 70.1311V70.1307ZM65.3311 117.459C65.3311 117.459 64.7327 117.43 63.7555 117.365C63.4409 117.344 63.0871 117.324 62.7017 117.297C61.0625 117.184 58.8535 116.948 56.6554 116.41C55.5451 116.138 54.4471 115.775 53.4064 115.349C52.7001 115.059 52.0132 114.758 51.3919 114.378C51.2197 114.259 50.9716 114.288 50.8385 114.443C50.7058 114.598 50.7387 114.82 50.9114 114.938C51.528 115.411 52.204 115.838 52.9444 116.188C54.015 116.695 55.1994 117.049 56.3761 117.332C58.6509 117.879 60.9425 118.099 62.6411 118.171C63.0374 118.188 63.4009 118.197 63.7252 118.195C64.7394 118.187 65.3581 118.12 65.3581 118.12C65.5619 118.113 65.7216 117.959 65.714 117.776C65.7068 117.594 65.535 117.451 65.3311 117.458V117.459ZM58.6791 115.055C58.6791 115.055 58.907 115.169 59.3142 115.309C59.4414 115.353 59.588 115.393 59.7493 115.436C60.4346 115.617 61.3784 115.819 62.3623 115.939C62.877 116.002 63.406 116.062 63.9114 116.037C64.282 116.019 64.6278 115.953 64.9597 115.878C65.1762 115.855 65.3303 115.679 65.3046 115.485C65.2781 115.291 65.0814 115.153 64.8649 115.176C64.5983 115.173 64.3292 115.138 64.0436 115.112C63.9265 115.101 63.8094 115.091 63.6898 115.084C63.0981 115.048 62.484 114.998 61.9024 114.917C61.0983 114.806 60.36 114.643 59.8129 114.55C59.2578 114.457 58.9049 114.425 58.9049 114.425C58.7111 114.369 58.5022 114.464 58.4395 114.639C58.3767 114.813 58.4845 114.999 58.6783 115.055L58.6791 115.055ZM32.0495 140.001C32.0495 140.001 32.5575 140.312 33.4242 140.754C33.7026 140.896 34.0206 141.047 34.3685 141.207C35.8788 141.903 37.9586 142.777 40.0948 143.467C41.261 143.844 42.4411 144.183 43.564 144.367C44.4308 144.509 45.2588 144.552 46.0072 144.526C46.225 144.529 46.4048 144.373 46.4082 144.178C46.412 143.983 46.2376 143.823 46.0198 143.819C45.3258 143.776 44.5777 143.624 43.7821 143.451C42.7161 143.22 41.5769 142.926 40.4549 142.568C38.3575 141.899 36.308 141.065 34.804 140.423C34.4557 140.274 34.1372 140.136 33.8508 140.016C32.963 139.646 32.4142 139.424 32.4142 139.424C32.2361 139.334 32.0103 139.39 31.9096 139.549C31.8098 139.708 31.8726 139.911 32.0499 140L32.0495 140.001Z" fill="black"/>
<path fill-rule="evenodd" clip-rule="evenodd" d="M159.89 115.446C158.737 115.716 158.084 115.918 158.084 115.918C157.829 115.997 157.689 116.242 157.766 116.474C157.845 116.705 158.113 116.84 158.374 116.779C158.96 116.643 159.536 116.492 160.101 116.329C162.207 115.835 166.104 115.095 170.749 115.021C174.54 114.961 178.83 115.343 183.052 116.674C191.828 119.44 199.036 124.717 204.73 126.947C206.528 127.651 208.185 128.054 209.699 128.021C207.928 130.017 203.347 135.015 197.91 139.657C194.815 142.3 191.441 144.828 188.152 146.613C184.966 148.343 181.192 149.372 177.473 149.972C168.754 151.38 160.33 150.422 160.33 150.422C160.044 150.389 159.78 150.565 159.732 150.82C159.684 151.074 159.869 151.317 160.152 151.37C160.152 151.37 165.179 152.324 170.068 156.392C172.465 158.386 174.83 161.126 176.556 164.871C179.794 171.871 183.054 178.172 186.533 182.288C188.934 185.13 191.455 186.938 194.125 187.29C194.341 187.319 194.542 187.186 194.575 186.993C194.607 186.8 194.459 186.62 194.244 186.591C191.75 186.245 189.443 184.498 187.22 181.827C183.811 177.732 180.643 171.474 177.494 164.528C175.72 160.631 173.278 157.774 170.794 155.696C168.427 153.717 166.024 152.442 164.122 151.644C167.457 151.773 172.51 151.753 177.665 150.921C181.512 150.3 185.414 149.225 188.71 147.435C192.058 145.615 195.495 143.041 198.646 140.348C205.699 134.32 211.323 127.697 211.323 127.697C211.458 127.538 211.467 127.32 211.345 127.153C211.224 126.986 210.997 126.905 210.78 126.952C209.118 127.311 207.246 126.903 205.152 126.085C199.44 123.852 192.2 118.572 183.394 115.805C179.048 114.439 174.633 114.044 170.731 114.11C168.6 114.145 166.623 114.319 164.896 114.544C167.969 113.136 170.664 111.37 172.974 109.515C179.828 104.013 183.295 97.7342 183.295 97.7342C183.391 97.5609 183.343 97.3506 183.179 97.2243C183.015 97.0973 182.775 97.0867 182.598 97.1979C180.951 98.2343 178.59 98.6259 176.03 98.6564C172.504 98.6986 168.601 98.0432 165.577 97.3091C163.91 96.9055 162.212 97.0178 160.65 97.3818C157.053 98.22 154.193 100.389 154.193 100.389C154.037 100.507 154.017 100.716 154.148 100.856C154.28 100.995 154.513 101.013 154.67 100.896C154.67 100.896 157.413 98.8475 160.847 98.0723C162.279 97.7489 163.833 97.6483 165.356 98.0285C168.444 98.7992 172.431 99.4931 176.039 99.4704C178.118 99.458 180.071 99.2025 181.673 98.6052C180.318 100.672 177.186 104.965 172.318 108.86C168.987 111.525 164.842 114.004 159.891 115.447L159.89 115.446Z" fill="black"/>
<path fill-rule="evenodd" clip-rule="evenodd" d="M142.276 59.3442C142.276 59.3442 143.128 56.9623 146.84 53.6832C148.981 51.7925 152.063 49.6093 156.469 47.414C162.358 44.4552 167.53 41.2842 171.424 38.3348C174.549 35.9685 176.849 33.7272 178.078 31.847C178.154 34.5507 178.222 39.6283 177.929 45.6005C177.688 50.522 177.203 56.0522 176.274 61.3615C174.954 68.9234 170.96 78.3553 165.241 86.9453C163.122 90.1272 160.768 93.1945 158.223 96.0094C154.127 100.538 149.538 104.417 144.615 107.044C144.427 107.142 144.364 107.36 144.475 107.527C144.585 107.695 144.828 107.751 145.016 107.653C150.056 105.033 154.791 101.15 159 96.5773C161.604 93.7474 164.008 90.6537 166.162 87.4379C171.982 78.7473 175.991 69.1718 177.327 61.5078C178.256 56.1626 178.74 50.5955 178.977 45.6408C179.404 36.6729 179.022 29.7121 179.022 29.7121C179.01 29.4814 178.807 29.2953 178.55 29.2779C178.292 29.2606 178.061 29.417 178.01 29.6435C177.547 31.6989 174.877 34.5315 170.776 37.6505C166.929 40.5761 161.819 43.7252 155.999 46.6659C151.527 48.9445 148.406 51.1993 146.246 53.1503C142.399 56.6251 141.568 59.1489 141.568 59.1489C141.508 59.3238 141.619 59.5089 141.814 59.5624C142.009 59.6166 142.216 59.5179 142.276 59.343V59.3442ZM96.8481 26.7329C96.8481 26.7329 97.2132 25.7218 98.8175 23.1617C99.6354 21.857 100.77 20.1551 102.34 17.9884C104.075 15.5637 105.418 12.7176 106.416 10.084C107.663 6.7977 108.377 3.84607 108.675 2.47728C110.256 3.77107 114.442 7.39919 118.933 12.9825C121.761 16.4972 124.711 20.7856 127.207 25.7565C129.568 30.4353 131.086 34.7143 132.095 38.3801C134.317 46.4526 133.96 51.5776 133.96 51.5776C133.942 51.7725 134.105 51.9425 134.323 51.9579C134.54 51.9726 134.73 51.8275 134.747 51.6327C134.747 51.6327 135.289 46.4029 133.113 38.1611C132.13 34.4384 130.57 30.1067 128.189 25.3619C125.653 20.3292 122.66 15.9869 119.79 12.4308C113.978 5.23181 108.665 1.24907 108.665 1.24907C108.524 1.14354 108.331 1.11339 108.16 1.17068C107.987 1.22796 107.863 1.36326 107.833 1.52531C107.833 1.52531 107.144 5.34826 105.477 9.80059C104.513 12.3746 103.225 15.1612 101.545 17.5358C100.004 19.7439 98.8891 21.476 98.091 22.8048C96.4838 25.4814 96.1401 26.5396 96.1401 26.5396C96.0803 26.7145 96.1906 26.8995 96.3861 26.953C96.5815 27.0065 96.7883 26.9078 96.8481 26.7329ZM29.0426 187C29.0426 187 33.2081 182.378 38.0394 177.889C40.2051 175.877 42.5039 173.891 44.6207 172.364C47.1119 170.565 50.0749 168.996 52.829 167.728C57.6038 165.529 61.7537 164.237 61.7537 164.237C61.9878 164.164 62.1167 163.939 62.0468 163.726C61.9761 163.513 61.7322 163.387 61.4909 163.439C61.4909 163.439 53.04 165.243 42.4365 163.585C36.8437 162.711 30.6507 160.875 24.7842 157.293C19.6543 154.161 15.5402 149.654 12.2896 144.895C6.04611 135.754 2.98965 125.671 2.12118 122.467C3.12232 122.871 4.88615 123.341 7.78678 123.428C10.2456 123.503 13.5527 123.306 17.9527 122.55C23.9178 121.523 30.8588 121.518 37.32 122.12C45.1299 122.848 52.2385 124.461 56.0585 126.255C56.3121 126.374 56.6267 126.289 56.764 126.064C56.9022 125.838 56.812 125.555 56.5618 125.429C56.5618 125.429 50.9977 122.606 46.1988 118.768C44.0167 117.024 41.9917 115.07 40.7387 113.074C39.4874 111.081 38.4475 109.287 37.6077 107.76C36.6487 106.014 35.9516 104.619 35.5009 103.676C36.513 104.14 38.0411 104.655 40.0851 104.845C41.8249 105.007 43.9455 104.932 46.4448 104.377C49.1618 103.773 51.8855 103.604 54.2824 103.638C58.7772 103.703 62.123 104.485 62.123 104.485C62.3795 104.545 62.6466 104.429 62.7519 104.212C62.8572 103.994 62.7696 103.74 62.5455 103.614C62.5455 103.614 55.9516 99.8926 49.5851 93.4983C46.0577 89.9557 42.5982 85.5931 40.3773 80.5849C36.4338 71.7006 32.9377 60.1638 28.9349 51.6078C26.7772 46.9961 24.4523 43.2466 21.865 41.184C23.9212 41.0231 28.3726 40.8052 33.802 41.3215C37.748 41.6965 42.2103 42.4585 46.6444 43.9136C50.9013 45.3088 54.6295 47.0047 57.7129 48.6531C63.9787 52.0016 67.5857 55.1473 67.5857 55.1473C67.7415 55.2841 67.9921 55.2819 68.1446 55.1424C68.2966 55.003 68.2941 54.7788 68.1383 54.6427C68.1383 54.6427 64.4909 51.4333 58.1467 48.0057C55.0305 46.3226 51.2635 44.586 46.9578 43.1524C42.4537 41.6547 37.9177 40.8606 33.9052 40.4645C26.2507 39.7085 20.4987 40.3993 20.4987 40.3993C20.2902 40.4246 20.1209 40.5621 20.0721 40.7453C20.0241 40.9285 20.107 41.1192 20.2806 41.2251C23.1555 42.9839 25.6278 46.9685 27.9577 51.973C31.9425 60.5305 35.4386 72.0597 39.3745 80.9403C41.6446 86.0578 45.1754 90.5191 48.7798 94.1386C53.0135 98.3889 57.3461 101.478 59.8415 103.108C58.418 102.909 56.4902 102.712 54.2985 102.68C51.8173 102.646 48.998 102.824 46.1866 103.449C43.8318 103.973 41.8338 104.048 40.1946 103.896C36.5611 103.56 34.7273 102.111 34.7273 102.111C34.5445 101.965 34.2737 101.948 34.0715 102.073C33.8694 102.196 33.7877 102.428 33.8744 102.634C33.8744 102.634 34.7597 104.735 36.655 108.18C37.5015 109.719 38.5516 111.529 39.8147 113.539C41.1203 115.616 43.2215 117.657 45.4942 119.473C47.4969 121.075 49.631 122.501 51.4513 123.628C47.5837 122.561 42.6601 121.678 37.427 121.193C30.8642 120.585 23.8151 120.599 17.7573 121.644C13.4563 122.386 10.2237 122.584 7.82006 122.512C3.09952 122.371 1.71389 121.201 1.71389 121.201C1.55426 121.059 1.30831 121.027 1.10994 121.123C0.911567 121.219 0.806691 121.42 0.853441 121.618C0.853441 121.618 3.7873 134.188 11.4329 145.364C14.7602 150.228 18.9796 154.826 24.2266 158.025C30.2241 161.68 36.5527 163.558 42.2689 164.443C48.5006 165.409 54.0019 165.198 57.547 164.846C56.0716 165.416 54.2921 166.148 52.4188 167.02C49.6205 168.322 46.6129 169.933 44.0858 171.774C41.9525 173.329 39.6365 175.346 37.4561 177.392C32.6256 181.923 28.464 186.586 28.464 186.586C28.3359 186.729 28.3616 186.937 28.5212 187.051C28.68 187.166 28.9138 187.143 29.0414 187.001L29.0426 187ZM118.352 97.5131C118.376 97.6186 118.398 97.7407 118.406 97.8522C118.452 98.5445 118.355 99.5444 118.205 100.62C118.094 101.412 117.943 102.244 117.809 103.03C117.476 104.987 117.164 106.653 117.164 106.653C117.118 106.843 117.253 107.032 117.466 107.073C117.679 107.115 117.889 106.994 117.936 106.804C117.936 106.804 118.296 105.586 118.668 103.997C118.758 103.611 118.849 103.202 118.932 102.784C119.212 101.354 119.432 99.8142 119.477 98.6595C119.512 97.7991 119.418 97.1298 119.219 96.8015C118.998 96.436 118.674 96.3033 118.276 96.3783C117.975 96.4352 117.647 96.6677 117.394 97.1174C117.064 97.7041 116.784 98.7319 116.569 99.9397C116.296 101.466 116.09 103.287 115.991 104.822C115.873 106.661 115.888 108.084 115.888 108.084C115.881 108.266 116.039 108.42 116.243 108.427C116.447 108.434 116.619 108.292 116.627 108.109C116.627 108.109 116.764 106.705 116.956 104.887C117.116 103.382 117.3 101.589 117.584 100.09C117.758 99.1747 117.959 98.3704 118.198 97.8183C118.248 97.7038 118.299 97.602 118.352 97.5138L118.352 97.5131Z" fill="black"/>
<path fill-rule="evenodd" clip-rule="evenodd" d="M107.637 32.0927C107.637 32.0927 108.56 33.3364 109.929 35.1243C110.925 36.4264 112.171 38.0077 113.404 39.6452C114.723 41.3969 116.045 43.2013 117.093 44.754C118.114 46.2555 118.9 47.6088 119.527 48.7545C119.77 49.1973 119.99 49.6073 120.186 49.9853C121.145 51.8384 121.51 52.9155 121.51 52.9155C121.564 53.1051 121.779 53.2193 121.99 53.1706C122.201 53.1228 122.33 52.9298 122.275 52.741C122.275 52.741 122.006 51.5919 121.114 49.6251C120.935 49.229 120.729 48.8001 120.49 48.3422C119.875 47.1626 119.049 45.7897 118.007 44.2562C116.682 42.3206 114.937 39.9912 113.285 37.8683C112.204 36.4791 111.175 35.1706 110.314 34.1301C109.092 32.6528 108.234 31.7019 108.234 31.7019C108.114 31.5546 107.882 31.5222 107.716 31.6299C107.552 31.7377 107.516 31.945 107.637 32.0927ZM109.607 84.2186C109.607 84.2186 110.051 84.0569 110.733 83.7204C110.951 83.613 111.189 83.4826 111.446 83.3367C112.557 82.7074 114.003 81.7769 115.285 80.6647C115.969 80.0708 116.625 79.4331 117.117 78.7374C117.471 78.2358 117.731 77.7063 117.918 77.1757C117.998 76.994 117.898 76.7886 117.696 76.717C117.493 76.6454 117.264 76.7344 117.184 76.916C116.943 77.3649 116.607 77.7821 116.254 78.2087C115.746 78.8215 115.171 79.4279 114.54 79.9807C113.316 81.0556 111.946 81.9642 110.906 82.6067C110.664 82.7567 110.44 82.892 110.242 83.0153C109.63 83.3989 109.255 83.6356 109.255 83.6356C109.076 83.7223 109.009 83.9235 109.106 84.0844C109.203 84.2454 109.428 84.3049 109.608 84.2182L109.607 84.2186ZM73.4223 68.5567C73.4223 68.5567 73.6194 69.5931 73.9129 71.0994C74.1261 72.1935 74.4036 73.5332 74.6319 74.9111C74.8736 76.3703 75.0792 77.8695 75.1499 79.1539C75.2936 81.628 75.4245 83.7837 76.2981 85.4438C76.5154 85.8572 76.7782 86.2401 77.0974 86.5887C77.7743 87.3285 78.6886 87.9217 79.9378 88.3378C80.1396 88.4128 80.3704 88.3269 80.4534 88.1471C80.5372 87.9666 80.4412 87.7601 80.2394 87.6851C79.1911 87.2577 78.4498 86.6965 77.904 86.0295C77.6534 85.7235 77.4479 85.3941 77.2714 85.0428C76.4775 83.463 76.3456 81.4385 76.2046 79.1038C76.0993 77.4745 75.788 75.5058 75.4355 73.7025C75.2476 72.743 75.0577 71.829 74.8656 71.0418C74.4841 69.4785 74.1437 68.4093 74.1437 68.4093C74.0987 68.2311 73.9003 68.1199 73.7011 68.1602C73.5019 68.2013 73.3772 68.3788 73.4227 68.5563L73.4223 68.5567ZM79.8246 157.918C79.8246 157.918 80.2579 158.406 81.1272 159.079C81.9376 159.707 83.14 160.479 84.6259 161.236C85.6035 161.734 86.7049 162.233 87.9292 162.627C88.1562 162.7 88.3891 162.768 88.6263 162.828C89.1628 162.965 89.7188 163.071 90.2916 163.163C90.5026 163.211 90.7182 163.097 90.7717 162.908C90.8261 162.719 90.698 162.526 90.487 162.478C89.9568 162.321 89.4535 162.139 88.9565 161.961C88.7379 161.883 88.5222 161.806 88.3074 161.73C87.1505 161.321 86.0836 160.879 85.1423 160.413C83.704 159.702 82.5605 158.954 81.7337 158.404C80.8598 157.822 80.3527 157.454 80.3527 157.454C80.2099 157.324 79.9753 157.322 79.8292 157.45C79.6835 157.578 79.6809 157.788 79.8246 157.918V157.918ZM74.2246 157.84C74.2246 157.84 74.5447 158.527 75.4351 159.586C76.2012 160.497 77.4125 161.669 79.1229 162.95C80.1455 163.715 81.345 164.529 82.774 165.304C83.0259 165.441 83.2858 165.574 83.5557 165.703C84.1488 165.988 84.7793 166.254 85.4422 166.521C85.6351 166.611 85.8739 166.544 85.975 166.371C86.0756 166.198 86.0007 165.984 85.8069 165.894C85.1975 165.569 84.6285 165.235 84.0763 164.915C83.8274 164.77 83.5831 164.628 83.3422 164.49C81.9797 163.708 80.7949 162.955 79.7963 162.222C78.1386 161.007 76.9854 159.878 76.1915 159.044C75.299 158.104 74.8812 157.532 74.8812 157.532C74.7865 157.37 74.5632 157.308 74.3817 157.392C74.201 157.476 74.1303 157.677 74.225 157.839L74.2246 157.84ZM138.266 103.134C138.266 103.134 139.914 103.793 141.619 105.223C142.506 105.968 143.409 106.923 144.098 108.107C144.802 109.309 145.005 110.563 144.985 111.681C144.949 113.723 144.157 115.316 144.157 115.316C144.053 115.522 144.141 115.764 144.36 115.877C144.36 115.877 146.008 116.733 146.928 118.252C147.439 119.096 147.72 120.15 147.332 121.382C146.862 122.876 146.924 123.857 147.283 124.602C147.577 125.212 148.077 125.676 148.711 126.126C149.377 126.601 150.202 127.067 151.045 127.75C152.474 128.908 154.597 132.477 155.035 137.008C155.325 140.013 154.869 143.444 152.963 146.89C151.784 149.024 150.677 150.416 149.648 151.365C148.259 152.648 147.017 153.105 145.965 153.52C144.484 154.105 143.335 154.618 142.577 156.674C142.181 157.763 141.845 158.7 141.453 159.486C140.981 160.431 140.435 161.151 139.564 161.639C138.297 162.348 136.39 162.574 133.208 162.386C132.991 162.371 132.801 162.517 132.784 162.711C132.768 162.906 132.93 163.076 133.148 163.091C136.593 163.359 138.661 163.097 140.051 162.351C141.841 161.393 142.554 159.618 143.567 156.97C144.204 155.277 145.174 154.878 146.396 154.4C147.55 153.948 148.901 153.439 150.422 152.037C151.508 151.035 152.684 149.569 153.927 147.316C155.925 143.69 156.401 140.084 156.088 136.925C155.611 132.084 153.268 128.298 151.738 127.064C150.874 126.367 150.031 125.891 149.348 125.407C148.856 125.058 148.449 124.712 148.22 124.239C147.926 123.635 147.929 122.84 148.307 121.626C148.773 120.129 148.431 118.847 147.805 117.824C147.03 116.556 145.811 115.695 145.21 115.322C145.464 114.703 145.939 113.328 145.952 111.69C145.963 110.445 145.706 109.052 144.902 107.723C144.136 106.466 143.15 105.456 142.181 104.675C140.333 103.186 138.557 102.525 138.557 102.525C138.37 102.453 138.152 102.531 138.071 102.699C137.991 102.867 138.078 103.062 138.265 103.134L138.266 103.134ZM113.085 85.1845C113.085 85.1845 113.981 85.4442 114.932 86.112C115.419 86.4542 115.929 86.8982 116.319 87.5045C116.722 88.1264 117.012 88.752 117.223 89.3071C117.636 90.3951 117.736 91.2137 117.736 91.2137C117.757 91.3878 117.884 91.5378 118.065 91.6041C118.246 91.6708 118.453 91.6437 118.606 91.5333C118.606 91.5333 119.577 90.8568 120.873 90.6793C121.322 90.6182 121.809 90.6028 122.32 90.7155C122.621 90.7814 122.932 90.8771 123.245 91.0339C123.428 91.1394 123.673 91.0923 123.791 90.9284C123.909 90.7641 123.856 90.5455 123.673 90.44C123.009 90.0069 122.326 89.8004 121.672 89.7315C121.349 89.6975 121.035 89.7024 120.734 89.733C119.886 89.8189 119.154 90.1076 118.651 90.3608C118.561 89.9987 118.423 89.5268 118.215 88.9996C117.977 88.3951 117.646 87.7167 117.195 87.0429C116.714 86.3295 116.11 85.7939 115.509 85.4137C115.296 85.2784 115.084 85.1612 114.879 85.0647C113.981 84.6422 113.253 84.539 113.253 84.539C113.054 84.4979 112.855 84.6091 112.808 84.7866C112.763 84.9648 112.886 85.1427 113.085 85.1845ZM89.64 70.9023C89.64 70.9023 89.8291 71.6267 90.03 72.6035C90.137 73.1217 90.2604 73.71 90.3232 74.3055C90.4053 75.0777 90.4083 75.8589 90.2099 76.4807C89.9968 77.1599 90.2423 77.7372 90.7587 78.1695C91.3239 78.6432 92.2576 78.9334 93.2082 78.9221C93.7953 78.9146 94.39 78.8041 94.8879 78.5543C95.6338 78.1812 96.1914 77.5386 96.255 76.5927C96.2807 76.399 96.1249 76.2237 95.9084 76.2007C95.6919 76.1777 95.4961 76.3164 95.4704 76.5101C95.3486 77.1323 94.9228 77.5051 94.4082 77.7237C94.0392 77.8804 93.6189 77.9554 93.1985 77.9573C92.6502 77.9599 92.1043 77.8461 91.7038 77.62C91.3441 77.4169 91.1053 77.1176 91.2232 76.7306C91.4406 76.007 91.4427 75.1037 91.3281 74.2105C91.2481 73.5826 91.1264 72.9581 90.9722 72.4177C90.6854 71.413 90.3442 70.695 90.3442 70.695C90.2798 70.5209 90.0705 70.4267 89.8767 70.484C89.683 70.5409 89.5773 70.7282 89.6409 70.9016L89.64 70.9023ZM88.5997 84.7899C88.5997 84.7899 92.3764 84.6102 96.9971 83.235C97.5244 83.0782 98.061 82.9033 98.6085 82.7202C99.1329 82.5438 99.6632 82.3546 100.202 82.1583C100.672 81.9868 101.149 81.8116 101.627 81.6246C102.712 81.2006 103.802 80.7269 104.868 80.1579C105.14 79.9905 105.209 79.6581 105.023 79.4154C104.837 79.172 104.465 79.1094 104.193 79.2767C103.111 80.0301 101.997 80.6949 100.852 81.2417C100.453 81.4324 100.05 81.608 99.6463 81.7675C99.2298 81.931 98.8128 82.0784 98.398 82.2114C93.1682 83.8994 88.5698 83.887 88.5698 83.887C88.2914 83.8938 88.072 84.1022 88.08 84.3517C88.0884 84.6 88.3213 84.7964 88.5997 84.7896V84.7899ZM94.4684 86.3453C94.4684 86.3453 94.7396 86.4915 95.232 86.6132C95.3335 86.6374 95.4442 86.6562 95.5647 86.672C96.0183 86.7338 96.5962 86.7406 97.2456 86.6347C97.7388 86.5541 98.2918 86.4278 98.8288 86.1463C99.1283 85.9888 99.4071 85.78 99.6964 85.5373C99.902 85.4035 99.9479 85.1446 99.7979 84.9607C99.6476 84.776 99.3591 84.7361 99.1527 84.8698C98.8596 85.0149 98.5689 85.1031 98.2981 85.2064C97.8369 85.3831 97.4179 85.5275 97.022 85.5991C96.5056 85.6929 96.0495 85.6914 95.6835 85.6775C95.1477 85.6579 94.8112 85.6089 94.8112 85.6089C94.5842 85.5241 94.3227 85.6198 94.2283 85.8241C94.1331 86.0268 94.2405 86.2612 94.468 86.3457L94.4684 86.3453ZM97.7818 68.366C97.7818 68.366 98.037 68.0788 98.51 67.6963C98.7366 67.5139 99.0171 67.3224 99.3389 67.1182C99.8304 66.8065 100.432 66.4922 101.171 66.2781C101.871 66.075 102.685 65.9744 103.633 65.9993C103.853 66.0057 104.079 66.0098 104.314 66.0215C104.649 66.0388 104.993 66.0505 105.36 66.098C105.566 66.1493 105.78 66.0411 105.837 65.8564C105.894 65.6725 105.774 65.4811 105.567 65.4298C105.125 65.264 104.708 65.1321 104.293 65.0439C104.099 65.0028 103.906 64.9764 103.717 64.958C102.598 64.8475 101.619 64.99 100.79 65.2327C99.9049 65.4924 99.1763 65.8772 98.6258 66.2955C98.2745 66.5627 97.997 66.8393 97.7792 67.0907C97.3164 67.6262 97.1235 68.0313 97.1235 68.0313C97.0203 68.1945 97.0839 68.401 97.2654 68.4934C97.4478 68.5857 97.6786 68.5284 97.7818 68.366ZM79.5794 73.1699C79.5794 73.1699 79.9206 72.533 80.6433 71.8897C81.0017 71.5705 81.452 71.2438 82.0576 71.0192C82.619 70.8111 83.2997 70.7022 84.1378 70.7064C84.3278 70.7071 84.524 70.7048 84.7308 70.7097C85.0231 70.7161 85.3234 70.7146 85.6502 70.7444C85.8575 70.7908 86.0689 70.6785 86.1211 70.4927C86.1738 70.3073 86.0474 70.1188 85.8406 70.0717C85.443 69.9259 85.0762 69.8109 84.7123 69.7352C84.5388 69.699 84.3682 69.6783 84.2006 69.6636C83.1544 69.5727 82.2863 69.7412 81.5838 70.005C80.7928 70.302 80.1914 70.7361 79.7757 71.197C79.5158 71.485 79.3284 71.7778 79.1941 72.042C78.9173 72.5873 78.8504 72.989 78.8504 72.989C78.7944 73.1696 78.9123 73.3561 79.114 73.4059C79.3149 73.456 79.5234 73.3505 79.5794 73.1699ZM93.1362 60.8878C93.1362 60.8878 93.4083 60.4291 93.9743 59.8887C94.2527 59.6238 94.6095 59.3502 95.0391 59.0909C95.6873 58.6989 96.517 58.3639 97.5918 58.2625C98.5306 58.1743 99.6375 58.2772 100.968 58.6123C101.256 58.685 101.556 58.7622 101.871 58.8489C102.302 58.9691 102.755 59.0931 103.231 59.2571C103.422 59.343 103.655 59.2729 103.751 59.1022C103.846 58.9307 103.768 58.7219 103.577 58.6368C103.038 58.3364 102.531 58.0767 102.03 57.871C101.791 57.7726 101.553 57.6901 101.319 57.6169C99.8249 57.1526 98.5365 57.0667 97.4625 57.17C96.1442 57.2962 95.1149 57.7217 94.3572 58.2482C93.8657 58.5889 93.4887 58.9691 93.2049 59.3242C92.6321 60.0417 92.432 60.6409 92.432 60.6409C92.3562 60.8143 92.4522 61.0114 92.646 61.0792C92.8405 61.1471 93.0596 61.0619 93.1362 60.8878ZM76.4476 68.259C76.4476 68.259 76.5971 67.8342 76.9113 67.241C77.0663 66.9497 77.2689 66.6256 77.5051 66.2834C77.8842 65.7347 78.3744 65.1558 79.0487 64.7017C79.7125 64.2544 80.5486 63.9434 81.6108 63.8571C81.8542 63.8375 82.1069 63.821 82.3752 63.8176C82.7475 63.8127 83.1375 63.8112 83.5625 63.8549C83.771 63.8978 83.979 63.7814 84.027 63.5948C84.0759 63.4083 83.9457 63.2221 83.7373 63.1791C83.2036 63.0111 82.7083 62.898 82.2307 62.8441C81.9974 62.817 81.77 62.8109 81.5501 62.8151C80.2095 62.8388 79.1418 63.2598 78.3083 63.8247C77.4963 64.375 76.8932 65.0786 76.4939 65.7701C76.2597 66.1753 76.0976 66.5729 75.9822 66.9233C75.7472 67.6337 75.7038 68.1384 75.7038 68.1384C75.6667 68.3223 75.8032 68.499 76.0087 68.5326C76.2142 68.5661 76.4109 68.4433 76.4484 68.2593L76.4476 68.259ZM101.624 111.427C101.416 111.26 101.135 111.053 100.829 110.858C100.574 110.696 100.305 110.546 100.062 110.414C99.6139 110.171 99.2673 110.009 99.2673 110.009C99.1161 109.906 98.8996 109.932 98.7842 110.068C98.6696 110.203 98.6991 110.397 98.8503 110.5C98.8503 110.5 99.3473 110.971 99.8986 111.458C100.077 111.615 100.261 111.77 100.432 111.912C100.635 112.081 100.818 112.226 100.934 112.337C101.254 112.637 101.756 112.699 102.429 112.178C103.047 111.7 104.132 110.649 106.119 109.621C106.646 109.347 107.219 109.052 107.884 108.788C108.121 108.708 108.242 108.472 108.153 108.26C108.065 108.048 107.8 107.94 107.563 108.019C106.879 108.206 106.261 108.406 105.713 108.64C105.049 108.921 104.49 109.244 104.001 109.548C103.155 110.075 102.541 110.584 102.083 110.969C101.915 111.111 101.75 111.311 101.624 111.427ZM101.565 111.477C101.515 111.47 101.394 111.442 101.423 111.488C101.453 111.536 101.502 111.523 101.565 111.477ZM92.9252 108.857C92.9252 108.857 92.9926 108.901 93.1421 108.939C93.1863 108.951 93.2373 108.958 93.2942 108.966C93.6517 109.017 94.2216 109.083 94.8138 109.221C95.0138 109.268 95.2156 109.327 95.416 109.382C95.6144 109.437 95.8136 109.481 95.9989 109.549C96.2563 109.667 96.5717 109.576 96.7031 109.346C96.835 109.116 96.7326 108.833 96.4761 108.715C96.2676 108.6 96.0474 108.491 95.8115 108.403C95.4725 108.276 95.1107 108.194 94.7695 108.122C94.2064 108.003 93.6926 107.906 93.3662 107.908C93.1248 107.909 92.9955 107.951 92.9955 107.951C92.7155 107.933 92.4729 108.122 92.4535 108.373C92.4341 108.622 92.6464 108.839 92.9252 108.857ZM73.6067 117.839C73.6067 117.839 73.5596 118.004 73.5587 118.294C73.5579 118.701 73.6695 119.344 73.8178 120.055C73.9062 120.48 74.0102 120.932 74.169 121.365C74.2768 121.66 74.4125 121.943 74.5573 122.213C74.6668 122.451 74.973 122.566 75.2396 122.468C75.5062 122.37 75.6351 122.097 75.5252 121.858C75.4304 121.607 75.3618 121.342 75.2864 121.075C75.2106 120.807 75.1327 120.539 75.0707 120.273C74.8892 119.494 74.8054 118.753 74.746 118.288C74.7359 118.214 74.7292 118.147 74.7149 118.089C74.6698 117.898 74.6209 117.799 74.6209 117.799C74.6087 117.548 74.3712 117.354 74.0915 117.365C73.8114 117.376 73.5945 117.589 73.6067 117.839ZM115.738 58.3334C115.738 58.3334 115.832 58.7038 116.028 59.3226C116.09 59.5175 116.168 59.7349 116.252 59.975C116.803 61.5548 117.681 64.0614 118.385 66.5148C118.656 67.4592 118.898 68.3965 119.102 69.2652C119.347 70.3095 119.537 71.2543 119.586 72.0058C119.598 72.264 119.842 72.4644 120.13 72.4539C120.419 72.4433 120.644 72.2255 120.632 71.9674C120.612 71.1737 120.476 70.1674 120.243 69.0617C120.056 68.1715 119.802 67.2177 119.528 66.2536C118.824 63.7754 117.963 61.2375 117.379 59.6505C117.29 59.4105 117.21 59.1919 117.131 59.0004C116.878 58.3899 116.699 58.0402 116.699 58.0402C116.608 57.8027 116.32 57.6757 116.054 57.7564C115.789 57.8374 115.647 58.0956 115.738 58.333L115.738 58.3334ZM91.7855 30.6972C91.7855 30.6972 92.3452 30.736 93.3278 30.9614C94.6655 31.2685 96.7541 31.9171 99.2348 33.4966C101.143 34.712 103.267 36.4693 105.501 38.9702C106.24 39.7971 107 40.6982 107.759 41.6954C107.917 41.9109 108.242 41.9709 108.483 41.8288C108.724 41.6867 108.79 41.3961 108.631 41.1806C107.888 40.1389 107.152 39.1877 106.411 38.3295C104.139 35.699 101.905 33.8912 99.9243 32.6287C97.2717 30.938 95.0387 30.2095 93.5911 29.9412C92.4286 29.7256 91.7602 29.7889 91.7602 29.7889C91.4802 29.795 91.2586 30.0034 91.2654 30.254C91.2717 30.5046 91.505 30.7032 91.7851 30.6968L91.7855 30.6972ZM76.8456 39.3471C76.8456 39.3471 78.08 38.9849 79.9526 38.5896C81.9346 38.1713 84.6314 37.7051 87.38 37.7307C89.7319 37.7526 92.1216 38.1159 94.0965 39.1602C96.1864 40.2636 98.4333 42.0142 100.526 43.8804C101.753 44.9741 102.922 46.1111 103.984 47.1781C106.81 50.0196 108.834 52.3996 108.834 52.3996C109.007 52.6068 109.334 52.6506 109.566 52.4968C109.798 52.3427 109.846 52.0495 109.675 51.8418C109.675 51.8418 107.688 49.3876 104.856 46.4895C103.789 45.3985 102.596 44.2494 101.355 43.1376C99.1919 41.2017 96.8632 39.3908 94.7013 38.2448C92.5512 37.1062 89.9538 36.6856 87.3918 36.6642C84.5329 36.64 81.7169 37.0878 79.6683 37.5698C77.7359 38.0243 76.4884 38.4961 76.4884 38.4961C76.2265 38.5843 76.0938 38.8466 76.1923 39.081C76.2909 39.3158 76.584 39.4345 76.846 39.3463L76.8456 39.3471Z" fill="black"/>
<path fill-rule="evenodd" clip-rule="evenodd" d="M109.332 83.2356C109.332 83.2356 108.587 84.1801 107.867 85.5613C107.479 86.3037 107.113 87.1758 106.845 88.0814C106.483 89.304 106.322 90.5917 106.588 91.7502C106.885 93.0395 107.302 94.4403 107.714 95.6953C108.417 97.8412 109.098 99.5597 109.098 99.5597C109.183 99.7768 109.416 99.9196 109.674 99.9128C109.674 99.9128 110.958 99.8808 113.268 99.3295C114.616 99.0076 116.321 98.5071 118.329 97.7281C120.076 97.0392 121.457 96.6318 122.518 96.3918C124.462 95.9527 125.262 96.0933 125.262 96.0933C125.542 96.1551 125.825 96.0009 125.894 95.7507C125.963 95.4997 125.79 95.2465 125.511 95.1846L122.256 95.4304C121.145 95.6648 119.699 96.0741 117.866 96.7716C116.314 97.3705 114.949 97.7986 113.798 98.1046C111.967 98.5904 110.686 98.7623 110.065 98.8233C109.831 98.206 109.349 96.9084 108.856 95.3964C108.454 94.1679 108.044 92.7976 107.755 91.5362C107.524 90.5307 107.682 89.4144 107.992 88.3524C108.24 87.5052 108.598 86.6957 108.937 85.9913C109.575 84.6681 110.185 83.7282 110.185 83.7282C110.336 83.5179 110.269 83.2364 110.033 83.1011C109.797 82.965 109.483 83.0261 109.331 83.2364L109.332 83.2356ZM90.0234 98.9503C90.0343 99.5676 89.79 100.658 89.3348 102.221C88.8407 103.918 88.15 107.16 87.4049 111.272C86.6906 115.213 85.9296 119.956 85.203 124.897C85.1643 125.153 85.3652 125.389 85.6512 125.423C85.9371 125.458 86.2008 125.278 86.2395 125.022C87.0078 120.098 87.8236 115.372 88.5564 111.442C89.3145 107.376 89.9855 104.166 90.4761 102.487C91.0755 100.438 91.2873 99.0999 91.1631 98.4935C91.0864 98.1208 90.8885 97.9087 90.6775 97.8013C90.4016 97.6603 89.9695 97.6396 89.4447 97.9893C88.9793 98.2987 88.5707 98.9398 88.2094 100.032C87.6976 101.579 87.1935 104.129 86.3297 107.976C85.7868 110.395 85.283 113.516 84.8766 116.419C84.6648 117.933 84.471 119.387 84.3278 120.651C84.0448 123.144 83.9138 124.897 83.9138 124.897C83.8873 125.146 84.0928 125.368 84.372 125.391C84.6513 125.414 84.8985 125.231 84.9242 124.981C84.9242 124.981 85.2055 122.842 85.601 119.923C85.8087 118.388 86.0336 116.635 86.2998 114.87C86.6557 112.509 87.0629 110.12 87.4976 108.186C88.1925 105.089 88.6512 102.84 89.0703 101.283C89.296 100.443 89.5053 99.8126 89.7408 99.3686C89.8322 99.1953 89.9227 99.0551 90.0234 98.9503Z" fill="black"/>
<path fill-rule="evenodd" clip-rule="evenodd" d="M70.0314 135.961C70.0314 135.961 70.5014 135.076 71.1867 133.759C71.9208 132.349 72.8924 130.44 73.9416 128.651C74.9339 126.959 75.9725 125.365 76.8793 124.401C78.1323 124.605 82.745 125.347 87.1905 125.953C89.9075 126.324 92.5621 126.637 94.3479 126.778C94.6356 126.802 94.8917 126.614 94.9186 126.357C94.9464 126.101 94.7354 125.871 94.4486 125.847C92.6813 125.682 90.0599 125.314 87.3707 124.924C82.1865 124.172 76.7613 123.301 76.7613 123.301C76.5604 123.268 76.3557 123.33 76.218 123.464C75.2122 124.441 74.0106 126.233 72.8861 128.156C71.8268 129.967 70.8097 131.885 70.1156 133.33C69.4683 134.68 69.0938 135.612 69.0938 135.612C68.986 135.844 69.1094 136.109 69.3676 136.206C69.6266 136.302 69.9236 136.193 70.0314 135.961V135.961ZM142.346 63.6643C142.346 63.6643 143.085 63.3286 143.566 63.84C143.724 64.0092 143.844 64.2609 143.934 64.6137C144.031 64.9973 144.085 65.4873 144.068 66.1129C144.023 68.4114 143.947 71.256 143.776 73.8364C143.646 75.8033 143.462 77.6157 143.188 78.9042C142.983 79.8712 142.347 81.6779 141.557 83.7492C139.912 88.0647 137.595 93.5097 136.961 94.9889C136.642 95.7446 136.389 96.478 136.195 97.119C135.808 98.3951 135.649 99.3071 135.649 99.3071C135.602 99.5623 135.794 99.8031 136.08 99.8449C136.365 99.8871 136.633 99.7145 136.681 99.459C136.681 99.459 136.85 98.5918 137.24 97.3802C137.437 96.7689 137.691 96.0694 138.008 95.3507C138.573 94.049 140.462 89.6856 142.04 85.7131C143.143 82.9352 144.091 80.3442 144.357 79.1032C144.638 77.78 144.832 75.9194 144.965 73.899C145.136 71.305 145.208 68.4434 145.252 66.131C145.26 65.6863 145.241 65.2996 145.192 64.9661C145.06 64.071 144.748 63.5196 144.401 63.1816C143.358 62.1667 141.878 62.8582 141.878 62.8582C141.629 62.9739 141.532 63.2483 141.661 63.471C141.79 63.6938 142.097 63.7804 142.345 63.6647L142.346 63.6643Z" fill="black"/>
<path fill-rule="evenodd" clip-rule="evenodd" d="M137.836 50.4722C137.836 50.4722 138.506 49.9457 139.165 49.983C139.483 50.0011 139.747 50.2189 139.948 50.7262C140.303 51.5964 140.618 54.1274 140.884 56.9129C141.263 60.8885 141.519 65.3766 141.515 66.4367C141.518 67.25 141.483 69.1732 141.508 71.0556C141.54 73.4009 141.643 75.6779 141.643 75.6779C141.641 75.8694 141.813 76.0262 142.027 76.0284C142.241 76.0299 142.416 75.8758 142.419 75.6851C142.419 75.6851 142.569 73.4088 142.644 71.0643C142.703 69.1807 142.701 67.2538 142.709 66.4401C142.713 65.3694 142.466 60.8361 142.079 56.8217C141.799 53.9111 141.433 51.2704 141.06 50.3621C140.609 49.2956 139.893 48.9787 139.217 48.9606C138.806 48.9489 138.395 49.0586 138.044 49.2131C137.515 49.4475 137.133 49.7659 137.133 49.7659C136.915 49.9393 136.895 50.2393 137.09 50.4341C137.284 50.629 137.619 50.6463 137.836 50.4722Z" fill="black"/>
<path fill-rule="evenodd" clip-rule="evenodd" d="M136.659 49.7181C136.681 49.7494 136.806 49.9382 136.872 50.1067C137.137 50.7888 137.317 51.9239 137.457 53.2581C137.793 56.4407 137.874 60.7216 138.078 62.9474C138.225 64.3557 138.266 66.0784 138.283 67.6661C138.309 70.216 138.248 72.4158 138.248 72.4158C138.236 72.6114 138.404 72.7787 138.622 72.7897C138.841 72.8002 139.029 72.6495 139.04 72.4539C139.04 72.4539 139.294 69.6662 139.342 66.7153C139.364 65.3838 139.332 64.0207 139.242 62.8633C139.014 60.2867 138.961 54.9657 138.477 51.7566C138.324 50.7459 138.121 49.9326 137.871 49.4475C137.683 49.082 137.442 48.8611 137.21 48.7601C136.746 48.5581 136.309 48.511 135.906 48.5943C135.513 48.6753 135.143 48.8845 134.818 49.2519C134.227 49.9201 133.758 51.2222 133.532 53.2468C133.389 54.5323 133.268 57.2118 133.175 60.0745C133.107 62.1767 133.037 64.3791 133.015 66.1975C132.987 68.5642 133.018 70.2797 133.018 70.2797C133.013 70.5303 133.237 70.7369 133.518 70.7403C133.798 70.7436 134.028 70.5432 134.032 70.2929C134.032 70.2929 134.108 68.8235 134.178 66.7274C134.257 64.3474 134.323 61.161 134.433 58.4099C134.518 56.2534 134.615 54.3657 134.729 53.3534C134.885 51.9582 135.143 50.9479 135.503 50.2985C135.696 49.9503 135.891 49.7185 136.152 49.6499C136.309 49.6085 136.477 49.6424 136.658 49.7178L136.659 49.7181ZM114.738 128.414C114.738 128.414 113.561 131.898 112.516 136.376C112.119 138.077 111.749 139.922 111.458 141.771C110.937 145.073 110.685 148.392 111.063 150.96C111.687 155.191 113.164 159.675 115.312 163.069C117.223 166.085 119.683 168.237 122.509 168.717C124.1 168.988 125.886 168.454 127.633 167.057C129.822 165.308 131.988 162.17 133.642 157.668C135.671 152.139 136.942 144.529 136.561 134.913C136.49 133.183 136.396 129.702 136.299 125.996C136.134 119.637 135.966 112.612 135.966 112.612C135.961 112.353 135.722 112.147 135.433 112.152C135.145 112.157 134.914 112.37 134.92 112.628C134.92 112.628 135.062 121.429 135.214 128.25C135.277 131.08 135.344 133.569 135.397 134.949C135.765 144.411 134.521 151.899 132.52 157.338C130.948 161.61 128.92 164.604 126.841 166.263C125.429 167.391 124.016 167.89 122.731 167.671C120.198 167.241 118.06 165.246 116.349 162.543C114.269 159.258 112.847 154.916 112.243 150.82C111.876 148.332 112.132 145.118 112.63 141.919C112.916 140.091 113.286 138.268 113.661 136.585C114.648 132.139 115.713 128.665 115.713 128.665C115.792 128.424 115.636 128.172 115.367 128.103C115.098 128.033 114.816 128.173 114.738 128.414L114.738 128.414Z" fill="black"/>
<path fill-rule="evenodd" clip-rule="evenodd" d="M120.745 54.4166C120.772 54.4324 120.801 54.4512 120.824 54.4686C120.969 54.5797 121.123 54.7365 121.286 54.9287C122.137 55.9312 123.18 57.8261 124.226 60.0074C125.893 63.4863 127.55 67.6899 128.404 70.268C128.487 70.5205 128.767 70.6788 129.058 70.6377C129.348 70.5967 129.56 70.3694 129.553 70.1064C129.553 70.1064 129.43 65.7324 129.241 61.7244C129.134 59.4557 129.005 57.3026 128.866 56.1185C128.698 54.6977 128.695 53.5008 128.859 52.594C128.949 52.0909 129.086 51.6858 129.287 51.3978C129.383 51.261 129.488 51.1544 129.616 51.0941C129.711 51.2211 129.919 51.5083 130.051 51.7822C130.606 52.9276 131.2 54.908 131.72 57.0384C132.305 59.4368 132.792 62.0248 133.005 63.8454C133.035 64.1021 133.291 64.2894 133.578 64.2638C133.866 64.2374 134.075 64.0079 134.045 63.7512C133.716 60.7525 132.671 55.7043 131.635 52.7399C131.284 51.7374 130.923 50.9629 130.598 50.5514C130.249 50.1082 129.845 49.9944 129.535 50.0483C128.803 50.1772 128.202 50.7489 127.881 51.7758C127.561 52.8013 127.491 54.3306 127.708 56.2267C127.845 57.398 127.969 59.5258 128.074 61.7689C128.149 63.3819 128.213 65.0548 128.263 66.4764C126.934 63.0446 125.116 58.8904 123.558 56.2365C122.834 55.0041 122.147 54.0864 121.596 53.6624C121.069 53.2588 120.577 53.2204 120.195 53.4001C119.911 53.5339 119.682 53.7955 119.575 54.207C119.439 54.7286 119.501 55.5864 119.717 56.6276C120.479 60.304 123.105 66.5174 123.165 67.2237C123.218 67.8418 123.716 69.0462 123.744 72.1505C123.761 73.9191 123.625 76.3059 123.168 79.5541C122.514 84.2243 122.445 87.4454 122.742 89.6636C123.045 91.929 123.74 93.202 124.548 93.9249C124.748 94.1012 124.859 94.3877 124.937 94.7283C125.048 95.2085 125.076 95.7866 125.056 96.3888C124.99 98.4183 124.395 100.711 124.395 100.711C124.328 100.955 124.496 101.2 124.768 101.26C125.04 101.319 125.315 101.169 125.381 100.926C125.381 100.926 126.229 97.9144 126.177 95.649C126.153 94.5765 125.892 93.6656 125.372 93.1907C124.532 92.4336 123.939 90.9559 123.794 88.1508C123.687 86.089 123.835 83.3428 124.35 79.6871C124.816 76.3763 124.953 73.9436 124.937 72.1411C124.907 68.9927 124.406 67.7702 124.354 67.1427C124.299 66.5084 122.225 61.4889 121.21 57.7594C120.914 56.6751 120.71 55.7051 120.689 55.003C120.684 54.8066 120.692 54.6344 120.722 54.4923C120.727 54.4682 120.736 54.4418 120.745 54.4158V54.4166ZM139.196 106.21L139.108 106.396C138.827 106.993 138.208 107.905 137.02 109.284C134.842 111.84 133.929 113.948 132.613 115.678C131.997 116.487 131.288 117.21 130.288 117.85C127.774 119.46 125.683 121.422 123.586 123.003C123.024 123.426 122.463 123.821 121.892 124.173C121.039 124.699 119.948 125.306 118.857 125.892C116.506 127.153 114.155 128.308 114.155 128.308C114.109 128.33 114.069 128.356 114.031 128.388C114.031 128.388 110.356 131.505 106.48 134.41C104.628 135.798 102.73 137.137 101.168 138.061C98.0884 139.882 88.8276 146.607 79.1422 152.135C73.6013 155.297 67.9234 158.071 63.2003 159.279C57.0407 160.866 51.899 161.574 48.514 161.001C46.7151 160.696 45.4364 160.031 44.8603 158.876C44.3549 157.863 44.3848 156.51 44.9744 154.772C45.0591 154.525 44.9037 154.263 44.6278 154.188C44.3519 154.112 44.0596 154.251 43.9741 154.498C43.2788 156.513 43.3011 158.086 43.8802 159.264C44.5802 160.689 46.096 161.584 48.3059 161.968C51.8067 162.578 57.1367 161.9 63.5196 160.28C68.3324 159.052 74.1252 156.24 79.7732 153.021C89.4678 147.494 98.7404 140.77 101.823 138.949C103.417 138.008 105.354 136.643 107.244 135.227C110.869 132.512 114.318 129.612 114.795 129.21C115.197 129.011 117.332 127.953 119.469 126.807C120.582 126.21 121.696 125.589 122.567 125.053C123.169 124.682 123.762 124.266 124.353 123.82C126.428 122.255 128.492 120.309 130.979 118.715C132.102 117.995 132.902 117.186 133.592 116.275C134.896 114.556 135.792 112.459 137.947 109.917C139.509 108.054 140.122 106.955 140.301 106.339C140.508 105.626 140.23 105.296 140 105.156C139.744 105 139.409 104.995 139.148 105.1C138.999 105.16 138.52 105.453 137.953 105.825C136.886 106.526 135.461 107.51 135.461 107.51C135.237 107.662 135.193 107.947 135.363 108.147C135.532 108.346 135.851 108.385 136.074 108.233C136.074 108.233 137.505 107.278 138.576 106.599C138.809 106.451 139.022 106.317 139.195 106.211L139.196 106.21ZM139.313 105.917C139.325 105.865 139.316 105.837 139.277 105.846C139.236 105.855 139.271 105.889 139.313 105.917Z" fill="black"/>
<path fill-rule="evenodd" clip-rule="evenodd" d="M137.014 104.157C137.014 104.157 136.852 104.408 136.608 104.855C136.531 104.995 136.452 105.156 136.364 105.332C135.792 106.474 134.886 108.287 133.84 110.068C133.46 110.716 133.057 111.357 132.66 111.968C132.231 112.631 131.809 113.257 131.383 113.79C131.21 113.996 131.256 114.29 131.486 114.445C131.718 114.6 132.045 114.559 132.219 114.352C132.695 113.813 133.187 113.185 133.659 112.503C134.085 111.886 134.49 111.223 134.883 110.559C135.951 108.755 136.894 106.924 137.448 105.755C137.534 105.575 137.612 105.41 137.673 105.263C137.87 104.785 137.954 104.499 137.954 104.499C138.059 104.266 137.934 104.001 137.675 103.907C137.416 103.812 137.12 103.924 137.014 104.156V104.157Z" fill="black"/>
<path fill-rule="evenodd" clip-rule="evenodd" d="M138.947 101.314C138.947 101.314 138.691 101.586 138.286 102.07C138.158 102.222 138.02 102.398 137.868 102.59C136.866 103.852 135.271 105.851 133.57 107.703C132.926 108.404 132.263 109.082 131.626 109.7C130.889 110.414 130.187 111.049 129.536 111.504C129.305 111.659 129.259 111.953 129.432 112.16C129.605 112.366 129.934 112.407 130.165 112.253C130.877 111.792 131.67 111.159 132.472 110.415C133.142 109.793 133.815 109.092 134.479 108.373C136.208 106.502 137.846 104.489 138.838 103.197C138.988 103 139.126 102.821 139.24 102.658C139.606 102.137 139.792 101.816 139.792 101.816C139.947 101.607 139.884 101.325 139.65 101.186C139.416 101.048 139.102 101.105 138.947 101.314Z" fill="black"/>
<path fill-rule="evenodd" clip-rule="evenodd" d="M44.982 154.652C44.982 154.652 45.1976 150.601 47.8578 146.682C49.2931 144.567 51.4407 142.486 54.6825 141.115C61.6921 138.134 70.974 136.313 80.8509 132.785C84.4116 131.513 88.0497 130.02 91.6869 128.177C96.605 125.684 100.511 123.644 103.498 122.052C108.858 119.195 111.265 117.778 111.265 117.778C111.367 117.718 111.445 117.631 111.49 117.53C111.49 117.53 112.926 114.291 114.556 111.494C115.446 109.969 116.38 108.57 117.174 107.963C118.282 107.114 119.341 105.87 120.222 104.602C121.224 103.162 121.998 101.695 122.372 100.773C122.578 100.267 122.891 100.035 123.254 100.049C123.7 100.067 124.139 100.375 124.379 100.76C124.403 100.8 124.402 100.855 124.404 100.92C124.408 101.062 124.384 101.23 124.343 101.42C124.21 102.011 123.897 102.774 123.489 103.582C122.697 105.152 121.547 106.886 120.595 107.877C120.415 108.064 120.407 108.339 120.574 108.535C120.742 108.731 121.04 108.795 121.29 108.689C121.29 108.689 124.804 107.19 128.053 105.599C129.762 104.764 131.397 103.901 132.426 103.216C134.273 101.98 136.226 100.144 138.019 99.2975C138.871 98.8958 139.675 98.7152 140.393 99.1068C140.416 99.1192 140.406 99.1422 140.403 99.1663C140.392 99.2455 140.359 99.3337 140.311 99.4305C139.937 100.194 138.801 101.287 137.356 102.505C133.676 105.611 127.993 109.421 126.674 110.492C126.46 110.665 126.443 110.962 126.637 111.153C126.83 111.344 127.161 111.36 127.376 111.186C128.89 109.967 136.114 105.194 139.555 101.956C140.658 100.918 141.371 100.002 141.504 99.3906C141.616 98.8773 141.437 98.4929 140.983 98.2438C139.93 97.6653 138.741 97.8058 137.488 98.3923C135.647 99.2542 133.63 101.12 131.731 102.382C130.737 103.044 129.15 103.876 127.496 104.684C125.854 105.486 124.143 106.266 122.861 106.838C123.658 105.697 124.432 104.357 124.944 103.195C125.325 102.332 125.557 101.561 125.577 101.026C125.589 100.699 125.521 100.438 125.405 100.251C124.966 99.5459 124.123 99.0322 123.305 98.9998C122.525 98.9692 121.713 99.3239 121.269 100.414C120.913 101.288 120.174 102.679 119.223 104.046C118.406 105.219 117.434 106.377 116.407 107.162C115.539 107.825 114.483 109.337 113.509 111.006C112.064 113.48 110.77 116.294 110.459 116.982C109.853 117.333 107.441 118.713 102.889 121.138C99.9074 122.727 96.009 124.763 91.0994 127.251C87.511 129.069 83.9217 130.54 80.4083 131.795C70.5052 135.334 61.2014 137.168 54.1733 140.159C50.7041 141.644 48.3981 143.877 46.8806 146.157C44.1085 150.322 43.9669 154.618 43.9669 154.618C43.956 154.869 44.1746 155.079 44.4547 155.089C44.7347 155.098 44.971 154.903 44.9811 154.653L44.982 154.652ZM71.5775 156.804C71.5775 156.804 71.452 158.095 71.3589 159.97C71.3269 160.614 71.3025 161.329 71.2869 162.083C71.2519 163.756 71.2658 165.626 71.3513 167.375C71.4398 169.131 71.6466 171.004 71.877 172.678C72.1996 175.024 72.5664 176.978 72.7004 177.668C72.4451 177.89 72.0404 178.301 71.674 178.917C71.4187 179.347 71.1808 179.88 71.0296 180.521C70.883 180.738 70.4138 181.435 69.8566 182.289C68.7114 184.042 67.1855 186.459 67.0886 186.584C66.9597 186.742 66.9985 186.963 67.1745 187.078C67.3514 187.193 67.5978 187.158 67.7267 187.001C67.8198 186.892 69.176 185.02 70.3275 183.375C71.2271 182.091 71.9978 180.948 71.9978 180.948C72.0298 180.9 72.0522 180.848 72.0644 180.793C72.1924 180.221 72.4009 179.748 72.6258 179.37C73.0849 178.597 73.6084 178.231 73.6084 178.231C73.7697 178.122 73.8489 177.94 73.8123 177.762C73.8123 177.762 73.3384 175.464 72.9236 172.56C72.6877 170.91 72.47 169.064 72.3723 167.332C72.2931 165.958 72.2653 164.51 72.259 163.141C72.2552 162.253 72.2665 161.398 72.2712 160.621C72.2851 158.423 72.3171 156.839 72.3171 156.839C72.328 156.657 72.1714 156.501 71.9675 156.491C71.7637 156.481 71.5893 156.622 71.5784 156.804L71.5775 156.804Z" fill="black"/>
<path fill-rule="evenodd" clip-rule="evenodd" d="M95.256 98.913C95.256 98.913 92.3802 98.5342 88.804 98.3058C87.423 98.2177 85.9384 98.1623 84.4752 98.1434C81.6832 98.1072 78.97 98.2373 77.1796 98.6895C74.2651 99.427 71.8922 100.841 70.1253 103.049C68.6761 104.86 67.6349 107.211 67.0541 110.18C66.4392 113.326 64.5309 118.488 62.3134 123.547C60.0989 128.599 57.5756 133.548 55.6887 136.277C54.9154 137.401 54.076 138.452 53.3061 139.348C51.8308 141.064 50.6123 142.208 50.6123 142.208C50.4122 142.395 50.4194 142.691 50.627 142.87C50.8355 143.049 51.1666 143.044 51.3666 142.857C51.3666 142.857 52.6297 141.692 54.1628 139.943C54.963 139.029 55.837 137.956 56.6427 136.806C58.5649 134.047 61.1501 129.045 63.4055 123.931C65.668 118.8 67.597 113.557 68.2246 110.363C68.7704 107.579 69.7341 105.368 71.0936 103.67C72.6996 101.665 74.8581 100.385 77.5043 99.7157C79.2109 99.2827 81.7978 99.1726 84.4596 99.2035C85.9026 99.2209 87.3657 99.2876 88.7291 99.3584C92.2711 99.5416 95.1284 99.8144 95.1284 99.8144C95.4068 99.8465 95.6612 99.6701 95.6961 99.421C95.7319 99.1726 95.5348 98.945 95.2573 98.913H95.256Z" fill="black"/>
<path fill-rule="evenodd" clip-rule="evenodd" d="M91.0241 90.9035C91.0241 90.9035 91.567 91.433 92.2522 92.5158C92.6903 93.207 93.1864 94.1179 93.624 95.2688C94.1505 96.6557 94.535 98.3904 94.7675 100.489C94.8008 100.788 94.8404 101.092 94.88 101.405C94.9372 101.855 95.0088 102.31 95.0552 102.791C95.0505 102.971 95.2102 103.119 95.4102 103.123C95.6111 103.126 95.7762 102.983 95.7808 102.804C95.8305 102.465 95.8756 102.14 95.9055 101.814C95.9367 101.473 95.9582 101.143 95.9573 100.816C95.9565 100.333 95.911 99.8677 95.8613 99.4204C95.7303 98.2216 95.4923 97.1501 95.2114 96.2012C94.7448 94.624 94.1475 93.3773 93.573 92.4491C92.6254 90.9186 91.7624 90.2259 91.7624 90.2259C91.5539 90.0435 91.2183 90.0469 91.014 90.2335C90.8101 90.4208 90.8139 90.7204 91.0233 90.9032L91.0241 90.9035ZM108.341 87.1149C108.341 87.1149 110.431 86.6231 112.614 85.7446C113.545 85.37 114.488 84.9177 115.302 84.4203C116.797 83.5037 117.938 82.2793 118.782 81.0823C120.091 79.227 120.688 77.4448 120.816 77.031C121.077 76.6737 122.249 75.0558 123.24 73.4967C123.88 72.4901 124.442 71.5046 124.659 70.8763C124.755 70.5948 124.577 70.2956 124.262 70.2089C123.948 70.123 123.613 70.2809 123.517 70.5635C123.32 71.142 122.797 72.0461 122.209 72.9732C121.107 74.7114 119.771 76.5192 119.771 76.5192C119.735 76.5693 119.708 76.624 119.691 76.6816C119.691 76.6816 119.158 78.5513 117.772 80.5106C117.006 81.5937 115.977 82.7066 114.624 83.535C113.671 84.124 112.519 84.629 111.454 85.047C109.63 85.763 108.049 86.2051 108.049 86.2051C107.768 86.2771 107.605 86.5394 107.686 86.7908C107.766 87.0418 108.059 87.1876 108.34 87.1156L108.341 87.1149ZM73.8334 45.6062C73.8216 45.6216 73.8077 45.6367 73.793 45.651C73.8022 45.642 73.8629 45.6182 73.8355 45.6065L73.8334 45.6062C73.9871 45.4136 73.9581 45.1452 73.7589 44.9821C73.5424 44.8061 73.2084 44.82 73.0113 45.013C72.9679 45.0533 72.8811 45.1724 72.7843 45.3725C72.6065 45.7369 72.2835 46.5035 71.9377 47.5011C71.7166 48.138 71.4849 48.8698 71.2693 49.6469C71.1392 50.1173 71.0242 50.6049 70.9088 51.0971C70.3528 53.468 69.9215 55.9339 70.0374 57.2714C70.0437 57.4033 70.1675 57.5065 70.3158 57.5009C70.4632 57.496 70.5786 57.3844 70.5723 57.2525C70.5723 56.4046 70.846 55.1108 71.2331 53.6851C71.5384 52.5583 71.9293 51.3572 72.2991 50.2236C72.4659 49.7114 72.6255 49.2139 72.7784 48.7451C72.8984 48.3746 73.0151 48.0226 73.1195 47.6955C73.3242 47.0579 73.4939 46.5167 73.6312 46.1308C73.7218 45.8786 73.7365 45.5688 73.8338 45.6065L73.8334 45.6062ZM70.841 70.7505C70.841 70.7505 70.9618 73.0124 71.255 75.8062C71.3674 76.8818 71.5132 78.0338 71.6753 79.1682C71.984 81.3254 72.3707 83.4129 72.8213 84.77C73.3015 86.2138 74.6138 87.1691 76.3546 87.7887C77.9024 88.3397 79.7926 88.6367 81.642 88.821C83.5899 89.0158 85.4886 89.0859 86.857 89.2879C87.1392 89.3335 87.41 89.165 87.4601 88.9125C87.5107 88.6593 87.3228 88.4173 87.0398 88.3721C85.6625 88.1343 83.7483 87.9941 81.7827 87.7684C80.0428 87.5694 78.26 87.3056 76.8023 86.7832C75.4385 86.2941 74.3582 85.5935 73.9829 84.461C73.5449 83.1449 73.1743 81.1208 72.871 79.0299C72.7076 77.9061 72.5695 76.763 72.4414 75.6988C72.1079 72.9276 71.8956 70.6872 71.8956 70.6872C71.8762 70.4264 71.6244 70.2285 71.3325 70.2458C71.0406 70.2632 70.8207 70.4885 70.8401 70.7497L70.841 70.7505Z" fill="black"/>
<path fill-rule="evenodd" clip-rule="evenodd" d="M68.9971 48.3056C68.9971 48.3056 68.3333 50.5883 67.6261 53.5395C67.3608 54.646 67.0959 55.8486 66.8486 57.0572C66.4169 59.1677 66.0539 61.3019 65.9073 63.0054C65.7405 64.9639 66.3693 67.5478 67.2951 70.1203C67.9193 71.8554 68.6681 73.5893 69.3879 75.1142C70.4943 77.4572 71.517 79.3042 71.7713 79.9287C71.8665 80.171 72.163 80.2984 72.4343 80.214C72.7047 80.1288 72.8474 79.8635 72.7523 79.6208C72.5126 78.9854 71.5565 77.0905 70.4779 74.7105C69.7939 73.2023 69.0552 71.4981 68.4466 69.7901C67.5811 67.3631 66.9577 64.9334 67.1153 63.0879C67.2563 61.4157 67.6152 59.3218 68.0317 57.2494C68.2731 56.0491 68.5371 54.8563 68.7852 53.7547C69.4452 50.8152 70.0252 48.5295 70.0252 48.5295C70.0942 48.2754 69.9203 48.0192 69.6368 47.9574C69.353 47.8956 69.0661 48.0516 68.9971 48.3056Z" fill="black"/>
<path fill-rule="evenodd" clip-rule="evenodd" d="M68.8542 52.1337C68.8542 52.1337 67.7672 51.3318 67.2765 50.2675C67.0811 49.8428 66.9817 49.3732 67.1325 48.8987C67.3456 48.2286 68.003 47.8412 68.5973 47.4956C69.2485 47.1169 69.8474 46.772 70.1148 46.3703C70.3802 45.9719 70.4311 45.5137 70.0264 44.9284C69.4944 44.1607 69.0973 43.4217 69.1385 42.7655C69.1634 42.3634 69.3904 42.0118 69.8735 41.7178C70.6901 41.2192 71.5708 40.3155 72.4704 39.0926C73.3511 37.8938 74.2609 36.3814 75.1727 34.6602C76.1945 32.7322 77.5439 30.9334 80.2222 29.5163C82.0235 28.5629 84.4154 27.782 87.6846 27.2359C91.7577 26.5549 95.0484 26.7867 98.1381 27.6516C101.316 28.541 104.282 30.0926 107.656 31.9931C111.323 34.0542 114.797 37.3058 117.405 41.5784C119.546 45.0882 121.107 49.2854 121.68 54.0987C121.709 54.3539 121.965 54.5401 122.25 54.5144C122.535 54.4881 122.744 54.2597 122.715 54.0045C122.176 49.043 120.624 44.7011 118.441 41.0753C115.753 36.6105 112.115 33.2315 108.3 31.0777C104.828 29.121 101.771 27.5329 98.5003 26.6171C95.2375 25.7036 91.7632 25.4518 87.4622 26.1709C84.0195 26.7471 81.5042 27.5807 79.6068 28.5862C76.6835 30.1355 75.2009 32.0934 74.0878 34.2001C73.2046 35.8715 72.3239 37.3405 71.4718 38.5058C70.68 39.587 69.9249 40.4018 69.2055 40.8443C68.3627 41.364 68.0077 42.005 67.9689 42.7101C67.9226 43.5445 68.369 44.5025 69.053 45.4733C69.1625 45.6286 69.2034 45.7447 69.1335 45.8517C68.9381 46.1506 68.4604 46.3692 67.9807 46.6533C67.1767 47.1301 66.3533 47.718 66.0715 48.633C65.8576 49.331 65.9839 50.0222 66.2771 50.6425C66.8789 51.9129 68.1863 52.8668 68.1863 52.8668C68.412 53.0318 68.7452 53.0021 68.9305 52.8001C69.1158 52.5981 69.0825 52.3 68.8559 52.1341L68.8542 52.1337Z" fill="black"/>
<path fill-rule="evenodd" clip-rule="evenodd" d="M83.6362 48.0746C83.6362 48.0746 84.4441 47.9876 85.6528 47.8715C86.9336 47.7486 88.6638 47.5892 90.3708 47.5583C91.1323 47.5444 91.8883 47.5591 92.5963 47.5971C93.3902 47.6397 94.1239 47.7098 94.7317 47.8598C95.0172 47.9374 95.3201 47.7923 95.4064 47.5365C95.4932 47.2806 95.3319 47.01 95.0459 46.9323C94.3783 46.7352 93.568 46.5984 92.6848 46.5295C91.9418 46.4714 91.1462 46.4646 90.3468 46.4786C88.596 46.5091 86.8182 46.6542 85.5092 46.8129C84.2739 46.9629 83.4568 47.1189 83.4568 47.1189C83.162 47.163 82.9628 47.4132 83.0125 47.677C83.0622 47.9408 83.3414 48.1187 83.6358 48.0746H83.6362Z" fill="black"/>
<path fill-rule="evenodd" clip-rule="evenodd" d="M78.8141 50.1527C79.9353 50.2428 82.1296 50.5703 83.9162 50.193C84.7135 50.0223 85.5925 49.7155 86.4239 49.3616C88.2375 48.5909 89.8232 47.6243 89.8232 47.6243C90.073 47.4773 90.1429 47.1766 89.9782 46.9535C89.814 46.73 89.4783 46.6682 89.2285 46.8151C89.2285 46.8151 87.6786 47.6944 85.9278 48.4067C85.1663 48.7168 84.3677 48.9983 83.6421 49.1483C81.8634 49.5214 79.6527 49.1155 78.6848 49.0594C78.3235 49.0387 78.067 49.079 77.9381 49.1314C77.7528 49.2083 77.6466 49.3243 77.5868 49.4476C77.5363 49.5523 77.5156 49.6711 77.5451 49.8071L77.6816 50.704C77.6264 50.6223 77.5776 50.539 77.535 50.4557C77.1155 49.6473 77.1716 48.7997 77.1716 48.7997C77.1871 48.5778 77.0473 48.3697 76.8211 48.2781C76.5945 48.1858 76.3288 48.228 76.1519 48.3844C75.7054 48.7813 75.1284 49.6179 74.5973 50.5386C73.7032 52.0879 72.9038 53.8633 72.9038 53.8633C72.7875 54.1098 72.9168 54.394 73.1923 54.4984C73.4677 54.6024 73.7853 54.4867 73.9011 54.2402C73.9011 54.2402 74.7439 52.5315 75.6435 51.0308C75.8166 50.7421 75.9902 50.4598 76.1599 50.2017C76.2281 50.4312 76.3187 50.6713 76.4412 50.9094C76.7748 51.5539 77.3312 52.1772 78.2464 52.5481C78.4456 52.6291 78.6777 52.6069 78.8537 52.4919C79.0298 52.3762 79.122 52.1844 79.0951 51.9903L78.815 50.1531L78.8141 50.1527ZM78.7396 49.662C78.7379 49.642 78.7349 49.6206 78.7303 49.5987L78.7396 49.662Z" fill="black"/>
<path fill-rule="evenodd" clip-rule="evenodd" d="M69.9805 48.687C69.9805 48.687 72.0695 46.101 76.2594 44.768C78.3172 44.1134 80.8805 43.7599 83.9572 44.1624C87.8193 44.6613 91.3892 46.0565 94.6946 47.9593C99.5958 50.7813 103.915 54.7185 107.733 58.5652C110.198 61.045 112.075 63.5941 113.492 65.9224C115.747 69.6281 116.826 72.7806 117.157 74.2455C117.215 74.5078 117.5 74.6786 117.793 74.6266C118.086 74.5753 118.278 74.3198 118.22 74.0575C117.893 72.541 116.837 69.2633 114.531 65.42C113.092 63.0201 111.16 60.4024 108.634 57.8499C104.746 53.9312 100.341 49.9243 95.3479 47.0511C91.8959 45.065 88.1626 43.6197 84.1282 43.1011C80.8228 42.6816 78.07 43.0713 75.8656 43.7885C71.3202 45.2673 69.0973 48.1274 69.0973 48.1274C68.9242 48.3452 68.9819 48.6486 69.2262 48.8024C69.4696 48.9573 69.8086 48.9049 69.9805 48.687ZM77.8232 123.852C77.8232 123.852 77.7882 123.581 77.6922 123.125C77.6619 122.981 77.6193 122.821 77.5751 122.645C77.2828 121.486 76.8183 119.647 76.5243 117.833C76.4127 117.146 76.3305 116.462 76.2737 115.822C76.2092 115.088 76.1777 114.414 76.2459 113.859C76.2846 113.603 76.0837 113.367 75.7977 113.333C75.5122 113.298 75.2481 113.478 75.2094 113.733C75.0999 114.338 75.0674 115.081 75.1133 115.89C75.1504 116.556 75.2452 117.267 75.3585 117.982C75.6499 119.832 76.0972 121.714 76.4236 122.889C76.4733 123.068 76.5184 123.231 76.5664 123.372C76.7205 123.828 76.8423 124.086 76.8423 124.086C76.9143 124.328 77.1927 124.472 77.4635 124.408C77.7339 124.343 77.8952 124.094 77.8232 123.852ZM132.663 157.701C132.663 157.701 132.68 159.281 132.672 161.366C132.669 162.129 132.671 162.961 132.656 163.807C132.632 165.195 132.578 166.623 132.458 167.853C132.333 169.14 132.17 170.305 132.007 171.293C131.663 173.384 131.317 174.688 131.317 174.688C131.253 174.933 131.414 175.182 131.685 175.252C131.685 175.252 132.81 175.544 133.514 176.128C133.782 176.35 133.997 176.615 133.957 176.946C133.851 177.846 133.377 178.81 133.268 179.806C133.19 180.516 133.278 181.239 133.723 181.968C134.048 182.485 134.386 183.177 134.701 183.876C135.373 185.369 135.931 186.893 135.931 186.893C135.992 187.08 136.212 187.187 136.42 187.132C136.63 187.077 136.749 186.88 136.687 186.693C136.687 186.693 136.22 185.113 135.609 183.567C135.312 182.816 134.977 182.075 134.655 181.518C134.328 180.973 134.278 180.431 134.338 179.902C134.452 178.908 134.92 177.946 135.027 177.048C135.103 176.404 134.764 175.854 134.24 175.424C133.69 174.971 132.934 174.658 132.453 174.489C132.581 173.937 132.813 172.863 133.041 171.428C133.2 170.422 133.357 169.237 133.474 167.93C133.613 166.372 133.657 164.504 133.64 162.791C133.632 162.068 133.614 161.374 133.588 160.742C133.516 158.956 133.401 157.672 133.401 157.672C133.392 157.489 133.219 157.348 133.015 157.356C132.811 157.364 132.653 157.519 132.662 157.702L132.663 157.701ZM79.7446 98.3192C79.7446 98.3192 79.6881 97.7897 79.8065 97.1433C79.8499 96.9074 79.9173 96.6564 80.0251 96.4084C80.2416 95.911 80.6354 95.4293 81.3695 95.1637C82.9156 94.5946 84.8581 93.7421 86.1747 92.3869C86.523 92.0289 86.8346 91.6384 87.0688 91.2046C87.4007 90.5873 87.5907 89.8954 87.6138 89.13C87.6323 88.9359 87.471 88.7644 87.2541 88.7478C87.0368 88.732 86.8456 88.8763 86.8271 89.0704C86.7209 89.7405 86.4442 90.313 86.1031 90.8349C85.7408 91.3867 85.2872 91.8751 84.7625 92.2968C83.608 93.2258 82.168 93.8668 80.9761 94.3187C79.9463 94.7137 79.3849 95.3943 79.1099 96.1073C78.9873 96.4243 78.9174 96.7465 78.8934 97.0469C78.8306 97.8258 79.0181 98.4454 79.0181 98.4454C79.0568 98.6244 79.2514 98.7424 79.4523 98.707C79.6523 98.6723 79.7833 98.4982 79.7446 98.3192Z" fill="black"/>
<path fill-rule="evenodd" clip-rule="evenodd" d="M77.9133 43.3483C77.9133 43.3483 76.0812 45.6001 74.5498 49.0217C73.7441 50.8201 73.0239 52.9418 72.6912 55.2287C72.136 59.1037 71.7776 61.473 72.0227 63.8605C72.1963 65.5568 72.6718 67.2629 73.5984 69.5132C74.1257 70.7926 74.5582 71.9775 74.928 73.0813C76.0972 76.5685 76.6494 79.2661 77.5519 81.6397C78.1437 83.1958 80.1068 85.2086 82.8423 87.0526C85.7825 89.0357 89.6081 90.8409 93.4673 91.7096C96.5827 92.4102 98.9956 92.3118 101.107 91.557C104.072 90.4961 106.45 88.1045 109.349 84.6648C112.066 81.4324 113.926 78.6794 114.624 75.1345C115.179 72.3189 114.999 68.9983 113.905 64.5276C113.842 64.266 113.554 64.0994 113.261 64.1556C112.97 64.2117 112.784 64.4699 112.846 64.7314C113.87 69.0443 114.036 72.2428 113.487 74.9521C112.802 78.3315 110.997 80.9432 108.393 84.0188C105.657 87.261 103.456 89.5562 100.66 90.5552C98.7543 91.2359 96.5747 91.2954 93.7621 90.6619C90.7086 89.9745 87.6787 88.672 85.1276 87.1706C81.8454 85.2391 79.3423 82.9938 78.695 81.2911C77.7954 78.9285 77.2474 76.2421 76.082 72.7716C75.7042 71.6477 75.2633 70.4425 74.7258 69.1408C73.8418 66.9991 73.3827 65.3763 73.2138 63.7618C72.9712 61.4384 73.3233 59.1334 73.8527 55.3602C74.1568 53.1642 74.8375 51.1246 75.5989 49.394C77.0499 46.0938 78.791 43.9151 78.791 43.9151C78.9662 43.6984 78.9111 43.3954 78.6693 43.2386C78.4267 43.0822 78.0877 43.1316 77.9133 43.3483ZM21.6532 132.03C21.6532 132.03 22.7431 132.682 24.5812 133.652C25.1712 133.964 25.8413 134.303 26.5754 134.667C29.7334 136.231 34.0803 138.231 38.6092 139.906C41.0209 140.798 43.4801 141.615 45.8522 142.183C47.6123 142.604 49.3235 142.879 50.9122 143.016C51.1287 143.04 51.3254 142.902 51.3519 142.709C51.3788 142.515 51.2247 142.339 51.0082 142.315C49.4713 142.111 47.8355 141.733 46.1356 141.281C43.8188 140.667 41.3911 139.896 39.0161 139.022C34.5205 137.369 30.1992 135.409 27.0425 133.898C26.3076 133.546 25.6358 133.218 25.0373 132.929C23.1749 132.03 22.0398 131.465 22.0398 131.465C21.8655 131.369 21.6376 131.418 21.5302 131.574C21.424 131.73 21.4784 131.934 21.6527 132.03H21.6532Z" fill="black"/>
</g>
<defs>
<clipPath id="clip0_791_1360">
<rect width="211.009" height="188.434" fill="white" transform="translate(0.422119)"/>
</clipPath>
</defs>
</svg>
