<svg width="25" height="25" viewBox="0 0 25 25" fill="none" xmlns="http://www.w3.org/2000/svg">
<path d="M19.4453 12.4346C19.4464 14.05 18.8646 15.6139 17.8023 16.8509C16.74 18.0879 15.2654 18.9185 13.6383 19.1965C12.0113 19.4745 10.3361 19.1819 8.90788 18.3704C7.4797 17.5589 6.39017 16.2805 5.83124 14.7604L1.81665 17.9014C3.06496 20.2222 5.07237 22.0669 7.51833 23.1412C9.96429 24.2154 12.7078 24.4571 15.3106 23.8278C17.9136 23.1984 20.2258 21.7343 21.8781 19.6691C23.5305 17.6039 24.4277 15.0569 24.4264 12.4346" fill="black"/>
<path d="M19.4454 12.4346C19.4445 13.5267 19.1768 14.6028 18.6646 15.5732C18.1523 16.5436 17.4104 17.3803 16.5006 18.0135L20.4696 21.1188C21.7141 20.023 22.7094 18.6837 23.3911 17.1877C24.0727 15.6917 24.4255 14.0724 24.4265 12.4346" fill="black"/>
<path d="M5.40762 12.4344C5.40936 11.6409 5.5527 10.8538 5.83119 10.1085L1.8166 6.96753C0.903779 8.65147 0.426514 10.5284 0.426514 12.4344C0.426514 14.3403 0.903779 16.2173 1.8166 17.9012L5.83119 14.7602C5.5527 14.0149 5.40936 13.2278 5.40762 12.4344Z" fill="black"/>
<path d="M12.4265 5.57002C13.9116 5.57043 15.3579 6.03459 16.5545 6.8949L20.2314 3.53859C18.8665 2.38764 17.2534 1.55301 15.5125 1.09701C13.7717 0.640998 11.948 0.575382 10.1776 0.905053C8.40713 1.23472 6.7357 1.95117 5.28797 3.00093C3.84025 4.05068 2.65363 5.40664 1.81665 6.96762L5.83124 10.1086C6.32085 8.78122 7.21655 7.63349 8.39656 6.82146C9.57657 6.00942 10.9836 5.57248 12.4265 5.57002Z" fill="black"/>
<path d="M24.4264 11.5488V12.4346L22.3887 15.5346H12.8793V10.6631H23.5207C23.7609 10.6631 23.9913 10.7564 24.1611 10.9225C24.331 11.0886 24.4264 11.3139 24.4264 11.5488Z" fill="black"/>
</svg>
